# This file uses centimeters as units for non-parametric coordinates.

mtllib bowl.mtl
g bowl:default1
v 0.519923 0.000000 -0.519922
v 0.000000 0.000000 -0.735282
v -0.519923 0.000000 -0.519922
v -0.735282 0.000000 0.000001
v -0.519923 0.000000 0.519923
v 0.000000 0.000000 0.735282
v 0.519923 0.000000 0.519923
v 0.735281 0.000000 0.000001
v 1.480466 0.865635 -1.480466
v 0.000000 0.865635 -2.093696
v -1.480467 0.865635 -1.480466
v -2.093695 0.865635 0.000001
v -1.480467 0.865635 1.480466
v 0.000000 0.865635 2.093696
v 1.480466 0.865635 1.480466
v 2.093696 0.865635 0.000001
v 2.086234 2.194857 -2.086235
v 0.000000 2.194857 -2.950381
v -2.086235 2.194857 -2.086235
v -2.950383 2.194857 0.000001
v -2.086235 2.194857 2.086235
v 0.000000 2.194857 2.950381
v 2.086234 2.194857 2.086235
v 2.950382 2.194857 0.000001
v 1.472280 1.356918 -1.472281
v 0.000000 1.356918 -2.082118
v -1.472281 1.356918 -1.472281
v -2.082119 1.356918 0.000001
v -1.472281 1.356918 1.472280
v 0.000000 1.356918 2.082120
v 1.472280 1.356918 1.472280
v 2.082121 1.356918 0.000001
v 1.849075 2.317095 -1.849076
v 0.000000 2.317095 -2.614987
v -1.849075 2.317095 -1.849076
v -2.614988 2.317095 0.000001
v -1.849075 2.317095 1.849075
v 0.000000 2.317095 2.614987
v 1.849075 2.317095 1.849075
v 2.614988 2.317095 0.000001
vt 0.087722 0.775943
vt 0.092285 0.786958
vt 0.065690 0.775943
vt 0.076706 0.771379
vt 0.108074 0.755591
vt 0.121067 0.786958
vt 0.087722 0.797974
vt 0.061127 0.786958
vt 0.045338 0.755591
vt 0.076706 0.742598
vt 0.120909 0.742756
vt 0.139218 0.786958
vt 0.108074 0.818326
vt 0.076706 0.802537
vt 0.065690 0.797974
vt 0.032345 0.786958
vt 0.032503 0.742756
vt 0.076706 0.724447
vt 0.120909 0.831161
vt 0.076706 0.831319
vt 0.045338 0.818326
vt 0.014194 0.786958
vt 0.076706 0.849470
vt 0.032503 0.831161
vt 0.044510 0.899125
vt 0.075704 0.974435
vt 0.044510 0.961514
vt 0.031589 0.930319
vt 0.075704 0.886204
vt 0.106898 0.961514
vt 0.075704 0.992831
vt 0.031502 0.974522
vt 0.013192 0.930319
vt 0.031502 0.886117
vt 0.119820 0.930319
vt 0.106898 0.899125
vt 0.119907 0.974522
vt 0.075704 0.867807
vt 0.138216 0.930319
vt 0.119907 0.886117
vt 0.117106 0.971721
vt 0.075704 0.988870
vt 0.034303 0.971721
vt 0.017154 0.930319
vt 0.034303 0.888918
vt 0.075704 0.871769
vt 0.117106 0.888918
vt 0.134255 0.930319
vn 0.000000 -0.896692 -0.442655
vn 0.000000 -0.639747 -0.768585
vn 0.543472 -0.639747 -0.543472
vn 0.313005 -0.896692 -0.313004
vn -0.337210 -0.878965 -0.337209
vn -0.543472 -0.639747 -0.543472
vn 0.000000 -0.639747 -0.768585
vn 0.000000 -0.896692 -0.442655
vn -0.476886 -0.878965 0.000000
vn -0.768585 -0.639747 0.000000
vn -0.543472 -0.639747 -0.543472
vn -0.337210 -0.878965 -0.337209
vn -0.313004 -0.896692 0.313005
vn -0.543472 -0.639747 0.543472
vn -0.768585 -0.639747 0.000000
vn -0.476886 -0.878965 0.000000
vn 0.000000 -0.896692 0.442655
vn 0.000000 -0.639747 0.768586
vn -0.543472 -0.639747 0.543472
vn -0.313004 -0.896692 0.313005
vn 0.337209 -0.878965 0.337209
vn 0.543472 -0.639747 0.543472
vn 0.000000 -0.639747 0.768586
vn 0.000000 -0.896692 0.442655
vn 0.476886 -0.878965 0.000000
vn 0.768585 -0.639747 0.000000
vn 0.543472 -0.639747 0.543472
vn 0.337209 -0.878965 0.337209
vn 0.313005 -0.896692 -0.313004
vn 0.543472 -0.639747 -0.543472
vn 0.768585 -0.639747 0.000000
vn 0.476886 -0.878965 0.000000
vn 0.543472 -0.639747 -0.543472
vn 0.000000 -0.639747 -0.768585
vn 0.000000 -0.541735 -0.840549
vn 0.594358 -0.541735 -0.594358
vn 0.000000 -0.639747 -0.768585
vn -0.543472 -0.639747 -0.543472
vn -0.594358 -0.541736 -0.594358
vn 0.000000 -0.541735 -0.840549
vn -0.543472 -0.639747 -0.543472
vn -0.768585 -0.639747 0.000000
vn -0.840549 -0.541736 0.000000
vn -0.594358 -0.541736 -0.594358
vn -0.768585 -0.639747 0.000000
vn -0.543472 -0.639747 0.543472
vn -0.594358 -0.541736 0.594358
vn -0.840549 -0.541736 0.000000
vn -0.543472 -0.639747 0.543472
vn 0.000000 -0.639747 0.768586
vn 0.000000 -0.541735 0.840549
vn -0.594358 -0.541736 0.594358
vn 0.000000 -0.639747 0.768586
vn 0.543472 -0.639747 0.543472
vn 0.594358 -0.541735 0.594359
vn 0.000000 -0.541735 0.840549
vn 0.543472 -0.639747 0.543472
vn 0.768585 -0.639747 0.000000
vn 0.840549 -0.541736 0.000000
vn 0.594358 -0.541735 0.594359
vn 0.768585 -0.639747 0.000000
vn 0.543472 -0.639747 -0.543472
vn 0.594358 -0.541735 -0.594358
vn 0.840549 -0.541736 0.000000
vn -0.403588 0.821117 0.403589
vn 0.000000 0.821117 0.570760
vn 0.000000 0.937861 0.347012
vn -0.245375 0.937861 0.245374
vn 0.000000 0.821117 0.570760
vn 0.403588 0.821117 0.403588
vn 0.337145 0.879015 0.337145
vn 0.000000 0.937861 0.347012
vn 0.403588 0.821117 0.403588
vn 0.570760 0.821117 0.000000
vn 0.476794 0.879015 0.000000
vn 0.337145 0.879015 0.337145
vn 0.570760 0.821117 0.000000
vn 0.403588 0.821117 -0.403588
vn 0.245374 0.937861 -0.245375
vn 0.476794 0.879015 0.000000
vn 0.403588 0.821117 -0.403588
vn 0.000000 0.821117 -0.570760
vn 0.000000 0.937861 -0.347012
vn 0.245374 0.937861 -0.245375
vn 0.000000 0.821117 -0.570760
vn -0.403589 0.821117 -0.403588
vn -0.337144 0.879015 -0.337144
vn 0.000000 0.937861 -0.347012
vn -0.403589 0.821117 -0.403588
vn -0.570760 0.821117 0.000000
vn -0.476794 0.879015 0.000000
vn -0.337144 0.879015 -0.337144
vn -0.570760 0.821117 0.000000
vn -0.403588 0.821117 0.403589
vn -0.245375 0.937861 0.245374
vn -0.476794 0.879015 0.000000
vn 0.313005 -0.896692 -0.313004
vn 0.476886 -0.878965 0.000000
vn 0.337209 -0.878965 0.337209
vn 0.000000 -0.896692 0.442655
vn 0.245374 0.937861 -0.245375
vn 0.000000 0.937861 0.347012
vn 0.337145 0.879015 0.337145
vn 0.476794 0.879015 0.000000
vn -0.337210 -0.878965 -0.337209
vn 0.000000 -0.896692 -0.442655
vn -0.313004 -0.896692 0.313005
vn -0.476886 -0.878965 0.000000
vn 0.000000 -0.896692 -0.442655
vn 0.313005 -0.896692 -0.313004
vn 0.000000 -0.896692 0.442655
vn -0.313004 -0.896692 0.313005
vn -0.476794 0.879015 0.000000
vn -0.245375 0.937861 0.245374
vn 0.000000 0.937861 -0.347012
vn -0.337144 0.879015 -0.337144
vn 0.000000 0.937861 -0.347012
vn -0.245375 0.937861 0.245374
vn 0.000000 0.937861 0.347012
vn 0.245374 0.937861 -0.245375
vn 0.242133 0.939545 -0.242131
vn 0.000000 0.939545 -0.342426
vn 0.000000 0.821117 0.570760
vn -0.403588 0.821117 0.403589
vn 0.000000 0.939545 -0.342426
vn -0.242133 0.939544 -0.242133
vn 0.403588 0.821117 0.403588
vn 0.000000 0.821117 0.570760
vn -0.242133 0.939544 -0.242133
vn -0.342427 0.939544 0.000000
vn 0.570760 0.821117 0.000000
vn 0.403588 0.821117 0.403588
vn -0.342427 0.939544 0.000000
vn -0.242132 0.939544 0.242135
vn 0.403588 0.821117 -0.403588
vn 0.570760 0.821117 0.000000
vn -0.242132 0.939544 0.242135
vn 0.000000 0.939544 0.342429
vn 0.000000 0.821117 -0.570760
vn 0.403588 0.821117 -0.403588
vn 0.000000 0.939544 0.342429
vn 0.242133 0.939544 0.242133
vn -0.403589 0.821117 -0.403588
vn 0.000000 0.821117 -0.570760
vn 0.242133 0.939544 0.242133
vn 0.342427 0.939544 0.000001
vn -0.570760 0.821117 0.000000
vn -0.403589 0.821117 -0.403588
vn 0.342427 0.939544 0.000001
vn 0.242133 0.939545 -0.242131
vn -0.403588 0.821117 0.403589
vn -0.570760 0.821117 0.000000
s off
g bowl:Bowl_01 bowl:Bowls bowl:Cookware bowl:polySurface1
usemtl bowl:initialShadingGroup
f 2/8/1 10/16/2 9/9/3 1/3/4
f 3/15/5 11/21/6 10/16/7 2/8/8
f 4/14/9 12/20/10 11/21/11 3/15/12
f 5/7/13 13/13/14 12/20/15 4/14/16
f 6/2/17 14/6/18 13/13/19 5/7/20
f 7/1/21 15/5/22 14/6/23 6/2/24
f 8/4/25 16/10/26 15/5/27 7/1/28
f 1/3/29 9/9/30 16/10/31 8/4/32
f 9/9/33 10/16/34 18/22/35 17/17/36
f 10/16/37 11/21/38 19/24/39 18/22/40
f 11/21/41 12/20/42 20/23/43 19/24/44
f 12/20/45 13/13/46 21/19/47 20/23/48
f 13/13/49 14/6/50 22/12/51 21/19/52
f 14/6/53 15/5/54 23/11/55 22/12/56
f 15/5/57 16/10/58 24/18/59 23/11/60
f 16/10/61 9/9/62 17/17/63 24/18/64
f 33/41/65 34/42/66 26/26/67 25/30/68
f 34/42/69 35/43/70 27/27/71 26/26/72
f 35/43/73 36/44/74 28/28/75 27/27/76
f 36/44/77 37/45/78 29/25/79 28/28/80
f 37/45/81 38/46/82 30/29/83 29/25/84
f 38/46/85 39/47/86 31/36/87 30/29/88
f 39/47/89 40/48/90 32/35/91 31/36/92
f 40/48/93 33/41/94 25/30/95 32/35/96
f 1/3/97 8/4/98 7/1/99 6/2/100
f 29/25/101 26/26/102 27/27/103 28/28/104
f 3/15/105 2/8/106 5/7/107 4/14/108
f 2/8/109 1/3/110 6/2/111 5/7/112
f 32/35/113 25/30/114 30/29/115 31/36/116
f 30/29/117 25/30/118 26/26/119 29/25/120
f 17/37/121 18/31/122 34/42/123 33/41/124
f 18/31/125 19/32/126 35/43/127 34/42/128
f 19/32/129 20/33/130 36/44/131 35/43/132
f 20/33/133 21/34/134 37/45/135 36/44/136
f 21/34/137 22/38/138 38/46/139 37/45/140
f 22/38/141 23/40/142 39/47/143 38/46/144
f 23/40/145 24/39/146 40/48/147 39/47/148
f 24/39/149 17/37/150 33/41/151 40/48/152
