# This file uses centimeters as units for non-parametric coordinates.

mtllib noodle.mtl
g default
v 4.271320 0.000000 -3.995074
v 2.466047 0.000000 -6.919671
v 0.000000 0.000000 -7.990149
v -2.466047 0.000000 -6.919671
v -4.271320 0.000000 -3.995074
v -4.932095 0.000000 0.000000
v -4.271320 0.000000 3.995074
v -2.466047 0.000000 6.919671
v 0.000000 0.000000 7.990148
v 2.466047 0.000000 6.919671
v 4.271320 0.000000 3.995074
v 4.932095 0.000000 0.000000
v 3.789534 6.612564 -3.544450
v 2.187889 6.612564 -6.139167
v 0.000000 6.612564 -7.088900
v -2.187889 6.612564 -6.139167
v -3.789536 6.612564 -3.544450
v -4.375780 6.612564 0.000000
v -3.789536 6.612564 3.544449
v -2.187889 6.612564 6.139166
v 0.000000 6.612564 7.088898
v 2.187889 6.612564 6.139166
v 3.789534 6.612564 3.544449
v 4.375778 6.612564 0.000000
v 5.533031 4.001427 -5.175187
v 3.194498 4.001427 -8.963688
v 0.000000 4.001427 -10.350373
v -3.194498 4.001427 -8.963688
v -5.533035 4.001427 -5.175187
v -6.388996 4.001427 0.000000
v -5.533035 4.001427 5.175187
v -3.194498 4.001427 8.963687
v 0.000000 4.001427 10.350374
v 3.194498 4.001427 8.963687
v 5.533031 4.001427 5.175187
v 6.388994 4.001427 0.000000
v 0.000000 0.000000 0.000000
vt 0.421875 0.020934
vt 0.364684 0.234375
vt 0.343750 0.156250
vt 0.364684 0.078125
vt 0.375000 0.500470
vt 0.395833 0.500470
vt 0.395833 0.688440
vt 0.375000 0.688440
vt 0.416667 0.500470
vt 0.416667 0.688440
vt 0.437500 0.500470
vt 0.437500 0.688440
vt 0.458333 0.500470
vt 0.458333 0.688440
vt 0.479167 0.500470
vt 0.479167 0.688440
vt 0.500000 0.500470
vt 0.500000 0.688440
vt 0.520833 0.500470
vt 0.520833 0.688440
vt 0.541667 0.500470
vt 0.541667 0.688440
vt 0.562500 0.500470
vt 0.562500 0.688440
vt 0.583333 0.500470
vt 0.583333 0.688440
vt 0.604167 0.500470
vt 0.604167 0.688440
vt 0.625000 0.500470
vt 0.625000 0.688440
vt 0.635316 0.765625
vt 0.421875 0.708434
vt 0.500000 0.687500
vt 0.578125 0.708434
vt 0.375000 0.312500
vt 0.395833 0.312500
vt 0.416667 0.312500
vt 0.437500 0.312500
vt 0.458333 0.312500
vt 0.479167 0.312500
vt 0.500000 0.312500
vt 0.520833 0.312500
vt 0.541667 0.312500
vt 0.562500 0.312500
vt 0.583333 0.312500
vt 0.604167 0.312500
vt 0.625000 0.312500
vt 0.635316 0.234375
vt 0.578125 0.291566
vt 0.635316 0.078125
vt 0.656250 0.156250
vt 0.500000 0.312500
vt 0.578125 0.020934
vt 0.421875 0.291566
vt 0.500000 0.000000
vt 0.364684 0.921875
vt 0.578125 0.979066
vt 0.500000 1.000000
vt 0.421875 0.979066
vt 0.656250 0.843750
vt 0.364684 0.765625
vt 0.635316 0.921875
vt 0.343750 0.843750
vt 0.500000 0.156250
vn 0.930970 0.066772 -0.358937
vn 0.646620 0.075406 -0.759076
vn 0.261495 0.930875 -0.255130
vn 0.310800 0.945142 -0.100547
vn 0.646620 0.075406 -0.759076
vn 0.000000 0.077166 -0.997018
vn 0.000000 0.887722 -0.460380
vn 0.261495 0.930875 -0.255130
vn 0.000000 0.077166 -0.997018
vn -0.646620 0.075407 -0.759076
vn -0.366777 0.858730 -0.357851
vn 0.000000 0.887722 -0.460380
vn -0.646620 0.075407 -0.759076
vn -0.930970 0.066772 -0.358937
vn -0.373160 0.919879 -0.120721
vn -0.366777 0.858730 -0.357851
vn -0.930970 0.066772 -0.358937
vn -0.998042 0.062548 0.000000
vn -0.329815 0.944046 0.000000
vn -0.373160 0.919879 -0.120721
vn -0.998042 0.062548 0.000000
vn -0.930970 0.066772 0.358938
vn -0.310800 0.945142 0.100548
vn -0.329815 0.944046 0.000000
vn -0.930970 0.066772 0.358938
vn -0.646620 0.075406 0.759076
vn -0.261495 0.930875 0.255130
vn -0.310800 0.945142 0.100548
vn -0.646620 0.075406 0.759076
vn 0.000000 0.077166 0.997018
vn 0.000000 0.887723 0.460379
vn -0.261495 0.930875 0.255130
vn 0.000000 0.077166 0.997018
vn 0.646620 0.075406 0.759076
vn 0.366778 0.858730 0.357850
vn 0.000000 0.887723 0.460379
vn 0.646620 0.075406 0.759076
vn 0.930970 0.066772 0.358937
vn 0.373160 0.919879 0.120722
vn 0.366778 0.858730 0.357850
vn 0.930970 0.066772 0.358937
vn 0.998042 0.062548 0.000000
vn 0.329815 0.944046 0.000000
vn 0.373160 0.919879 0.120722
vn 0.998042 0.062548 0.000000
vn 0.930970 0.066772 -0.358937
vn 0.310800 0.945142 -0.100547
vn 0.329815 0.944046 0.000000
vn 0.373160 0.919879 0.120722
vn -0.261495 0.930875 0.255130
vn 0.000000 0.887723 0.460379
vn 0.366778 0.858730 0.357850
vn 0.473502 -0.866260 -0.159339
vn 0.262761 -0.927864 -0.264623
vn 0.646620 0.075406 -0.759076
vn 0.930970 0.066772 -0.358937
vn 0.262761 -0.927864 -0.264623
vn 0.000000 -0.934377 -0.356287
vn 0.000000 0.077166 -0.997018
vn 0.646620 0.075406 -0.759076
vn 0.000000 -0.934377 -0.356287
vn -0.323130 -0.888645 -0.325419
vn -0.646620 0.075407 -0.759076
vn 0.000000 0.077166 -0.997018
vn -0.323130 -0.888645 -0.325419
vn -0.712047 -0.659981 -0.239613
vn -0.930970 0.066772 -0.358937
vn -0.646620 0.075407 -0.759076
vn -0.712047 -0.659981 -0.239613
vn -0.770038 -0.637998 0.000000
vn -0.998042 0.062548 0.000000
vn -0.930970 0.066772 -0.358937
vn -0.770038 -0.637998 0.000000
vn -0.473502 -0.866260 0.159340
vn -0.930970 0.066772 0.358938
vn -0.998042 0.062548 0.000000
vn -0.473502 -0.866260 0.159340
vn -0.262761 -0.927864 0.264623
vn -0.646620 0.075406 0.759076
vn -0.930970 0.066772 0.358938
vn -0.262761 -0.927864 0.264623
vn 0.000000 -0.934377 0.356287
vn 0.000000 0.077166 0.997018
vn -0.646620 0.075406 0.759076
vn 0.000000 -0.934377 0.356287
vn 0.323130 -0.888645 0.325419
vn 0.646620 0.075406 0.759076
vn 0.000000 0.077166 0.997018
vn 0.323130 -0.888645 0.325419
vn 0.712046 -0.659982 0.239613
vn 0.930970 0.066772 0.358937
vn 0.646620 0.075406 0.759076
vn 0.712046 -0.659982 0.239613
vn 0.770038 -0.637999 0.000000
vn 0.998042 0.062548 0.000000
vn 0.930970 0.066772 0.358937
vn 0.770038 -0.637999 0.000000
vn 0.473502 -0.866260 -0.159339
vn 0.930970 0.066772 -0.358937
vn 0.998042 0.062548 0.000000
vn 0.000000 -0.934377 -0.356287
vn 0.262761 -0.927864 -0.264623
vn 0.473502 -0.866260 -0.159339
vn 0.000000 -1.000000 0.000000
vn -0.373160 0.919879 -0.120721
vn 0.261495 0.930875 -0.255130
vn 0.000000 0.887722 -0.460380
vn -0.366777 0.858730 -0.357851
vn 0.329815 0.944046 0.000000
vn -0.310800 0.945142 0.100548
vn -0.261495 0.930875 0.255130
vn 0.373160 0.919879 0.120722
vn 0.329815 0.944046 0.000000
vn 0.310800 0.945142 -0.100547
vn -0.329815 0.944046 0.000000
vn -0.310800 0.945142 0.100548
vn -0.329815 0.944046 0.000000
vn 0.310800 0.945142 -0.100547
vn 0.261495 0.930875 -0.255130
vn -0.373160 0.919879 -0.120721
vn -0.712047 -0.659981 -0.239613
vn -0.323130 -0.888645 -0.325419
vn 0.770038 -0.637999 0.000000
vn 0.712046 -0.659982 0.239613
vn -0.770038 -0.637998 0.000000
vn -0.473502 -0.866260 0.159340
vn 0.323130 -0.888645 0.325419
vn 0.000000 -0.934377 0.356287
vn -0.262761 -0.927864 0.264623
s off
g noodle:pCylinder78
usemtl noodle:initialShadingGroup
f 25/5/1 26/6/2 14/7/3 13/8/4
f 26/6/5 27/9/6 15/10/7 14/7/8
f 27/9/9 28/11/10 16/12/11 15/10/12
f 28/11/13 29/13/14 17/14/15 16/12/16
f 29/13/17 30/15/18 18/16/19 17/14/20
f 30/15/21 31/17/22 19/18/23 18/16/24
f 31/17/25 32/19/26 20/20/27 19/18/28
f 32/19/29 33/21/30 21/22/31 20/20/32
f 33/21/33 34/23/34 22/24/35 21/22/36
f 34/23/37 35/25/38 23/26/39 22/24/40
f 35/25/41 36/27/42 24/28/43 23/26/44
f 36/27/45 25/29/46 13/30/47 24/28/48
f 23/31/49 20/32/50 21/33/51 22/34/52
f 1/35/53 2/36/54 26/6/55 25/5/56
f 2/36/57 3/37/58 27/9/59 26/6/60
f 3/37/61 4/38/62 28/11/63 27/9/64
f 4/38/65 5/39/66 29/13/67 28/11/68
f 5/39/69 6/40/70 30/15/71 29/13/72
f 6/40/73 7/41/74 31/17/75 30/15/76
f 7/41/77 8/42/78 32/19/79 31/17/80
f 8/42/81 9/43/82 33/21/83 32/19/84
f 9/43/85 10/44/86 34/23/87 33/21/88
f 10/44/89 11/45/90 35/25/91 34/23/92
f 11/45/93 12/46/94 36/27/95 35/25/96
f 12/46/97 1/47/98 25/29/99 36/27/100
s 1
f 3/55/101 2/53/102 1/50/103 37/64/104
s off
f 17/56/105 14/57/106 15/58/107 16/59/108
f 24/60/109 19/61/110 20/32/111 23/31/112
f 24/60/113 13/62/114 18/63/115 19/61/116
f 18/63/117 13/62/118 14/57/119 17/56/120
s 1
f 3/55/101 37/64/104 5/4/121 4/1/122
f 37/64/104 12/51/123 11/48/124
f 6/3/125 37/64/104 7/2/126
f 37/64/104 11/48/124 10/49/127 9/52/128
f 5/4/121 37/64/104 6/3/125
f 37/64/104 1/50/103 12/51/123
f 7/2/126 37/64/104 9/52/128 8/54/129
