# This file uses centimeters as units for non-parametric coordinates.

mtllib plate.mtl
g plate:default1
v 0.519923 0.000002 -0.519922
v 0.000000 0.000002 -0.735282
v -0.519922 0.000002 -0.519922
v -0.735281 0.000002 0.000001
v -0.519922 0.000002 0.519923
v 0.000000 0.000002 0.735282
v 0.519923 0.000002 0.519923
v 0.735282 0.000002 0.000001
v 1.480467 0.444874 -1.480466
v 0.000000 0.444874 -2.093696
v -1.480467 0.444874 -1.480466
v -2.093695 0.444874 0.000001
v -1.480467 0.444874 1.480466
v 0.000000 0.444874 2.093696
v 1.480467 0.444874 1.480466
v 2.093696 0.444874 0.000001
v 2.086235 1.127995 -2.086235
v 0.000000 1.127995 -2.950381
v -2.086234 1.127995 -2.086235
v -2.950382 1.127995 0.000001
v -2.086234 1.127995 2.086235
v 0.000000 1.127995 2.950381
v 2.086235 1.127995 2.086235
v 2.950383 1.127995 0.000001
v 1.472282 0.697357 -1.472281
v 0.000000 0.697357 -2.082118
v -1.472281 0.697357 -1.472281
v -2.082119 0.697357 0.000001
v -1.472281 0.697357 1.472280
v 0.000000 0.697357 2.082120
v 1.472282 0.697357 1.472280
v 2.082121 0.697357 0.000001
v 1.902048 1.204435 -1.902049
v 0.000000 1.204435 -2.689902
v -1.902048 1.204435 -1.902049
v -2.689903 1.204435 0.000001
v -1.902048 1.204435 1.902049
v 0.000000 1.204435 2.689903
v 1.902048 1.204435 1.902049
v 2.689904 1.204435 0.000001
vt 0.203090 0.790021
vt 0.174482 0.790021
vt 0.187397 0.758841
vt 0.207626 0.779071
vt 0.207626 0.800970
vt 0.187397 0.821200
vt 0.156440 0.790021
vt 0.174639 0.746084
vt 0.218576 0.745927
vt 0.218576 0.774535
vt 0.234061 0.790021
vt 0.229525 0.800970
vt 0.218576 0.805506
vt 0.218576 0.834114
vt 0.174639 0.833957
vt 0.218576 0.727885
vt 0.249755 0.758841
vt 0.229525 0.779071
vt 0.262669 0.790021
vt 0.249755 0.821200
vt 0.218576 0.852156
vt 0.262512 0.746084
vt 0.280711 0.790021
vt 0.262512 0.833957
vt 0.263391 0.972567
vt 0.219454 0.990767
vt 0.219454 0.972481
vt 0.250461 0.959637
vt 0.175518 0.972567
vt 0.188448 0.959637
vt 0.219454 0.884781
vt 0.188448 0.897624
vt 0.281590 0.928631
vt 0.263304 0.928631
vt 0.157318 0.928631
vt 0.175604 0.928631
vt 0.250461 0.897624
vt 0.175518 0.884694
vt 0.219454 0.866495
vt 0.263391 0.884694
vt 0.259512 0.968688
vt 0.219454 0.985281
vt 0.179397 0.968688
vt 0.162804 0.928631
vt 0.179397 0.888573
vt 0.219454 0.871981
vt 0.259512 0.888573
vt 0.276104 0.928631
vn 0.000000 -0.968994 -0.247085
vn 0.000000 -0.847211 -0.531256
vn 0.375655 -0.847211 -0.375655
vn 0.174715 -0.968994 -0.174715
vn -0.190509 -0.963023 -0.190508
vn -0.375655 -0.847212 -0.375654
vn 0.000000 -0.847211 -0.531256
vn 0.000000 -0.968994 -0.247085
vn -0.269420 -0.963023 0.000000
vn -0.531256 -0.847212 0.000000
vn -0.375655 -0.847212 -0.375654
vn -0.190509 -0.963023 -0.190508
vn -0.174715 -0.968994 0.174715
vn -0.375655 -0.847211 0.375655
vn -0.531256 -0.847212 0.000000
vn -0.269420 -0.963023 0.000000
vn 0.000000 -0.968994 0.247085
vn 0.000000 -0.847211 0.531256
vn -0.375655 -0.847211 0.375655
vn -0.174715 -0.968994 0.174715
vn 0.190509 -0.963023 0.190509
vn 0.375655 -0.847211 0.375655
vn 0.000000 -0.847211 0.531256
vn 0.000000 -0.968994 0.247085
vn 0.269420 -0.963023 0.000000
vn 0.531256 -0.847212 0.000000
vn 0.375655 -0.847211 0.375655
vn 0.190509 -0.963023 0.190509
vn 0.174715 -0.968994 -0.174715
vn 0.375655 -0.847211 -0.375655
vn 0.531256 -0.847212 0.000000
vn 0.269420 -0.963023 0.000000
vn 0.375655 -0.847211 -0.375655
vn 0.000000 -0.847211 -0.531256
vn 0.000000 -0.781860 -0.623454
vn 0.440848 -0.781860 -0.440849
vn 0.000000 -0.847211 -0.531256
vn -0.375655 -0.847212 -0.375654
vn -0.440849 -0.781860 -0.440848
vn 0.000000 -0.781860 -0.623454
vn -0.375655 -0.847212 -0.375654
vn -0.531256 -0.847212 0.000000
vn -0.623454 -0.781860 0.000000
vn -0.440849 -0.781860 -0.440848
vn -0.531256 -0.847212 0.000000
vn -0.375655 -0.847211 0.375655
vn -0.440849 -0.781860 0.440849
vn -0.623454 -0.781860 0.000000
vn -0.375655 -0.847211 0.375655
vn 0.000000 -0.847211 0.531256
vn 0.000000 -0.781860 0.623455
vn -0.440849 -0.781860 0.440849
vn 0.000000 -0.847211 0.531256
vn 0.375655 -0.847211 0.375655
vn 0.440848 -0.781860 0.440850
vn 0.000000 -0.781860 0.623455
vn 0.375655 -0.847211 0.375655
vn 0.531256 -0.847212 0.000000
vn 0.623454 -0.781860 0.000000
vn 0.440848 -0.781860 0.440850
vn 0.531256 -0.847212 0.000000
vn 0.375655 -0.847211 -0.375655
vn 0.440848 -0.781860 -0.440849
vn 0.623454 -0.781860 0.000000
vn -0.228773 0.946217 0.228774
vn 0.000000 0.946217 0.323534
vn 0.000000 0.980297 0.197529
vn -0.139674 0.980297 0.139674
vn 0.000000 0.946217 0.323534
vn 0.228772 0.946217 0.228772
vn 0.196481 0.960620 0.196481
vn 0.000000 0.980297 0.197529
vn 0.228772 0.946217 0.228772
vn 0.323533 0.946217 0.000000
vn 0.277866 0.960620 0.000000
vn 0.196481 0.960620 0.196481
vn 0.323533 0.946217 0.000000
vn 0.228773 0.946217 -0.228773
vn 0.139674 0.980297 -0.139674
vn 0.277866 0.960620 0.000000
vn 0.228773 0.946217 -0.228773
vn 0.000000 0.946216 -0.323535
vn 0.000000 0.980297 -0.197529
vn 0.139674 0.980297 -0.139674
vn 0.000000 0.946216 -0.323535
vn -0.228773 0.946216 -0.228774
vn -0.196481 0.960620 -0.196482
vn 0.000000 0.980297 -0.197529
vn -0.228773 0.946216 -0.228774
vn -0.323533 0.946217 -0.000000
vn -0.277866 0.960620 -0.000000
vn -0.196481 0.960620 -0.196482
vn -0.323533 0.946217 -0.000000
vn -0.228773 0.946217 0.228774
vn -0.139674 0.980297 0.139674
vn -0.277866 0.960620 -0.000000
vn 0.174715 -0.968994 -0.174715
vn 0.269420 -0.963023 0.000000
vn 0.190509 -0.963023 0.190509
vn 0.000000 -0.968994 0.247085
vn 0.139674 0.980297 -0.139674
vn 0.000000 0.980297 0.197529
vn 0.196481 0.960620 0.196481
vn 0.277866 0.960620 0.000000
vn -0.190509 -0.963023 -0.190508
vn 0.000000 -0.968994 -0.247085
vn -0.174715 -0.968994 0.174715
vn -0.269420 -0.963023 0.000000
vn 0.000000 -0.968994 -0.247085
vn 0.174715 -0.968994 -0.174715
vn 0.000000 -0.968994 0.247085
vn -0.174715 -0.968994 0.174715
vn -0.277866 0.960620 -0.000000
vn -0.139674 0.980297 0.139674
vn 0.000000 0.980297 -0.197529
vn -0.196481 0.960620 -0.196482
vn 0.000000 0.980297 -0.197529
vn -0.139674 0.980297 0.139674
vn 0.000000 0.980297 0.197529
vn 0.139674 0.980297 -0.139674
vn 0.199113 0.959536 -0.199112
vn -0.000000 0.959535 -0.281589
vn 0.000000 0.946217 0.323534
vn -0.228773 0.946217 0.228774
vn -0.000000 0.959535 -0.281589
vn -0.199112 0.959535 -0.199113
vn 0.228772 0.946217 0.228772
vn 0.000000 0.946217 0.323534
vn -0.199112 0.959535 -0.199113
vn -0.281588 0.959535 0.000001
vn 0.323533 0.946217 0.000000
vn 0.228772 0.946217 0.228772
vn -0.281588 0.959535 0.000001
vn -0.199112 0.959535 0.199113
vn 0.228773 0.946217 -0.228773
vn 0.323533 0.946217 0.000000
vn -0.199112 0.959535 0.199113
vn 0.000000 0.959536 0.281586
vn 0.000000 0.946216 -0.323535
vn 0.228773 0.946217 -0.228773
vn 0.000000 0.959536 0.281586
vn 0.199113 0.959536 0.199110
vn -0.228773 0.946216 -0.228774
vn 0.000000 0.946216 -0.323535
vn 0.199113 0.959536 0.199110
vn 0.281588 0.959535 0.000000
vn -0.323533 0.946217 -0.000000
vn -0.228773 0.946216 -0.228774
vn 0.281588 0.959535 0.000000
vn 0.199113 0.959536 -0.199112
vn -0.228773 0.946217 0.228774
vn -0.323533 0.946217 -0.000000
s off
g plate:Cookware plate:Plate_01 plate:Plates plate:polySurface1
usemtl plate:initialShadingGroup
f 2/1/1 10/2/2 9/3/3 1/4/4
f 3/5/5 11/6/6 10/2/7 2/1/8
f 4/13/9 12/14/10 11/6/11 3/5/12
f 5/12/13 13/20/14 12/14/15 4/13/16
f 6/11/17 14/19/18 13/20/19 5/12/20
f 7/18/21 15/17/22 14/19/23 6/11/24
f 8/10/25 16/9/26 15/17/27 7/18/28
f 1/4/29 9/3/30 16/9/31 8/10/32
f 9/3/33 10/2/34 18/7/35 17/8/36
f 10/2/37 11/6/38 19/15/39 18/7/40
f 11/6/41 12/14/42 20/21/43 19/15/44
f 12/14/45 13/20/46 21/24/47 20/21/48
f 13/20/49 14/19/50 22/23/51 21/24/52
f 14/19/53 15/17/54 23/22/55 22/23/56
f 15/17/57 16/9/58 24/16/59 23/22/60
f 16/9/61 9/3/62 17/8/63 24/16/64
f 33/41/65 34/42/66 26/27/67 25/28/68
f 34/42/69 35/43/70 27/30/71 26/27/72
f 35/43/73 36/44/74 28/36/75 27/30/76
f 36/44/77 37/45/78 29/32/79 28/36/80
f 37/45/81 38/46/82 30/31/83 29/32/84
f 38/46/85 39/47/86 31/37/87 30/31/88
f 39/47/89 40/48/90 32/34/91 31/37/92
f 40/48/93 33/41/94 25/28/95 32/34/96
f 1/4/97 8/10/98 7/18/99 6/11/100
f 29/32/101 26/27/102 27/30/103 28/36/104
f 3/5/105 2/1/106 5/12/107 4/13/108
f 2/1/109 1/4/110 6/11/111 5/12/112
f 32/34/113 25/28/114 30/31/115 31/37/116
f 30/31/117 25/28/118 26/27/119 29/32/120
f 17/25/121 18/26/122 34/42/123 33/41/124
f 18/26/125 19/29/126 35/43/127 34/42/128
f 19/29/129 20/35/130 36/44/131 35/43/132
f 20/35/133 21/38/134 37/45/135 36/44/136
f 21/38/137 22/39/138 38/46/139 37/45/140
f 22/39/141 23/40/142 39/47/143 38/46/144
f 23/40/145 24/33/146 40/48/147 39/47/148
f 24/33/149 17/25/150 33/41/151 40/48/152
g default
v 0.519923 0.000002 -0.519922
v 0.000000 0.000002 -0.735282
v -0.519922 0.000002 -0.519922
v -0.735281 0.000002 0.000001
v -0.519922 0.000002 0.519923
v 0.000000 0.000002 0.735282
v 0.519923 0.000002 0.519923
v 0.735282 0.000002 0.000001
v 1.480467 0.444874 -1.480466
v 0.000000 0.444874 -2.093696
v -1.480467 0.444874 -1.480466
v -2.093695 0.444874 0.000001
v -1.480467 0.444874 1.480466
v 0.000000 0.444874 2.093696
v 1.480467 0.444874 1.480466
v 2.093696 0.444874 0.000001
v 2.086235 1.127995 -2.086235
v 0.000000 1.127995 -2.950381
v -2.086234 1.127995 -2.086235
v -2.950382 1.127995 0.000001
v -2.086234 1.127995 2.086235
v 0.000000 1.127995 2.950381
v 2.086235 1.127995 2.086235
v 2.950383 1.127995 0.000001
v 1.472282 0.697357 -1.472281
v 0.000000 0.697357 -2.082118
v -1.472281 0.697357 -1.472281
v -2.082119 0.697357 0.000001
v -1.472281 0.697357 1.472280
v 0.000000 0.697357 2.082120
v 1.472282 0.697357 1.472280
v 2.082121 0.697357 0.000001
v 1.902048 1.204435 -1.902049
v 0.000000 1.204435 -2.689902
v -1.902048 1.204435 -1.902049
v -2.689903 1.204435 0.000001
v -1.902048 1.204435 1.902049
v 0.000000 1.204435 2.689903
v 1.902048 1.204435 1.902049
v 2.689904 1.204435 0.000001
vt 0.203090 0.790021
vt 0.174482 0.790021
vt 0.187397 0.758841
vt 0.207626 0.779071
vt 0.207626 0.800970
vt 0.187397 0.821200
vt 0.156440 0.790021
vt 0.174639 0.746084
vt 0.218576 0.745927
vt 0.218576 0.774535
vt 0.234061 0.790021
vt 0.229525 0.800970
vt 0.218576 0.805506
vt 0.218576 0.834114
vt 0.174639 0.833957
vt 0.218576 0.727885
vt 0.249755 0.758841
vt 0.229525 0.779071
vt 0.262669 0.790021
vt 0.249755 0.821200
vt 0.218576 0.852156
vt 0.262512 0.746084
vt 0.280711 0.790021
vt 0.262512 0.833957
vt 0.263391 0.972567
vt 0.219454 0.990767
vt 0.219454 0.972481
vt 0.250461 0.959637
vt 0.175518 0.972567
vt 0.188448 0.959637
vt 0.219454 0.884781
vt 0.188448 0.897624
vt 0.281590 0.928631
vt 0.263304 0.928631
vt 0.157318 0.928631
vt 0.175604 0.928631
vt 0.250461 0.897624
vt 0.175518 0.884694
vt 0.219454 0.866495
vt 0.263391 0.884694
vt 0.259512 0.968688
vt 0.219454 0.985281
vt 0.179397 0.968688
vt 0.162804 0.928631
vt 0.179397 0.888573
vt 0.219454 0.871981
vt 0.259512 0.888573
vt 0.276104 0.928631
vn 0.000000 -0.968994 -0.247085
vn 0.000000 -0.847211 -0.531256
vn 0.375655 -0.847211 -0.375655
vn 0.174715 -0.968994 -0.174715
vn -0.190509 -0.963023 -0.190508
vn -0.375655 -0.847212 -0.375654
vn 0.000000 -0.847211 -0.531256
vn 0.000000 -0.968994 -0.247085
vn -0.269420 -0.963023 0.000000
vn -0.531256 -0.847212 0.000000
vn -0.375655 -0.847212 -0.375654
vn -0.190509 -0.963023 -0.190508
vn -0.174715 -0.968994 0.174715
vn -0.375655 -0.847211 0.375655
vn -0.531256 -0.847212 0.000000
vn -0.269420 -0.963023 0.000000
vn 0.000000 -0.968994 0.247085
vn 0.000000 -0.847211 0.531256
vn -0.375655 -0.847211 0.375655
vn -0.174715 -0.968994 0.174715
vn 0.190509 -0.963023 0.190509
vn 0.375655 -0.847211 0.375655
vn 0.000000 -0.847211 0.531256
vn 0.000000 -0.968994 0.247085
vn 0.269420 -0.963023 0.000000
vn 0.531256 -0.847212 0.000000
vn 0.375655 -0.847211 0.375655
vn 0.190509 -0.963023 0.190509
vn 0.174715 -0.968994 -0.174715
vn 0.375655 -0.847211 -0.375655
vn 0.531256 -0.847212 0.000000
vn 0.269420 -0.963023 0.000000
vn 0.375655 -0.847211 -0.375655
vn 0.000000 -0.847211 -0.531256
vn 0.000000 -0.781860 -0.623454
vn 0.440848 -0.781860 -0.440849
vn 0.000000 -0.847211 -0.531256
vn -0.375655 -0.847212 -0.375654
vn -0.440849 -0.781860 -0.440848
vn 0.000000 -0.781860 -0.623454
vn -0.375655 -0.847212 -0.375654
vn -0.531256 -0.847212 0.000000
vn -0.623454 -0.781860 0.000000
vn -0.440849 -0.781860 -0.440848
vn -0.531256 -0.847212 0.000000
vn -0.375655 -0.847211 0.375655
vn -0.440849 -0.781860 0.440849
vn -0.623454 -0.781860 0.000000
vn -0.375655 -0.847211 0.375655
vn 0.000000 -0.847211 0.531256
vn 0.000000 -0.781860 0.623455
vn -0.440849 -0.781860 0.440849
vn 0.000000 -0.847211 0.531256
vn 0.375655 -0.847211 0.375655
vn 0.440848 -0.781860 0.440850
vn 0.000000 -0.781860 0.623455
vn 0.375655 -0.847211 0.375655
vn 0.531256 -0.847212 0.000000
vn 0.623454 -0.781860 0.000000
vn 0.440848 -0.781860 0.440850
vn 0.531256 -0.847212 0.000000
vn 0.375655 -0.847211 -0.375655
vn 0.440848 -0.781860 -0.440849
vn 0.623454 -0.781860 0.000000
vn -0.228773 0.946217 0.228774
vn 0.000000 0.946217 0.323534
vn 0.000000 0.980297 0.197529
vn -0.139674 0.980297 0.139674
vn 0.000000 0.946217 0.323534
vn 0.228772 0.946217 0.228772
vn 0.196481 0.960620 0.196481
vn 0.000000 0.980297 0.197529
vn 0.228772 0.946217 0.228772
vn 0.323533 0.946217 0.000000
vn 0.277866 0.960620 0.000000
vn 0.196481 0.960620 0.196481
vn 0.323533 0.946217 0.000000
vn 0.228773 0.946217 -0.228773
vn 0.139674 0.980297 -0.139674
vn 0.277866 0.960620 0.000000
vn 0.228773 0.946217 -0.228773
vn 0.000000 0.946216 -0.323535
vn 0.000000 0.980297 -0.197529
vn 0.139674 0.980297 -0.139674
vn 0.000000 0.946216 -0.323535
vn -0.228773 0.946216 -0.228774
vn -0.196481 0.960620 -0.196482
vn 0.000000 0.980297 -0.197529
vn -0.228773 0.946216 -0.228774
vn -0.323533 0.946217 -0.000000
vn -0.277866 0.960620 -0.000000
vn -0.196481 0.960620 -0.196482
vn -0.323533 0.946217 -0.000000
vn -0.228773 0.946217 0.228774
vn -0.139674 0.980297 0.139674
vn -0.277866 0.960620 -0.000000
vn 0.174715 -0.968994 -0.174715
vn 0.269420 -0.963023 0.000000
vn 0.190509 -0.963023 0.190509
vn 0.000000 -0.968994 0.247085
vn 0.139674 0.980297 -0.139674
vn 0.000000 0.980297 0.197529
vn 0.196481 0.960620 0.196481
vn 0.277866 0.960620 0.000000
vn -0.190509 -0.963023 -0.190508
vn 0.000000 -0.968994 -0.247085
vn -0.174715 -0.968994 0.174715
vn -0.269420 -0.963023 0.000000
vn 0.000000 -0.968994 -0.247085
vn 0.174715 -0.968994 -0.174715
vn 0.000000 -0.968994 0.247085
vn -0.174715 -0.968994 0.174715
vn -0.277866 0.960620 -0.000000
vn -0.139674 0.980297 0.139674
vn 0.000000 0.980297 -0.197529
vn -0.196481 0.960620 -0.196482
vn 0.000000 0.980297 -0.197529
vn -0.139674 0.980297 0.139674
vn 0.000000 0.980297 0.197529
vn 0.139674 0.980297 -0.139674
vn 0.199113 0.959536 -0.199112
vn -0.000000 0.959535 -0.281589
vn 0.000000 0.946217 0.323534
vn -0.228773 0.946217 0.228774
vn -0.000000 0.959535 -0.281589
vn -0.199112 0.959535 -0.199113
vn 0.228772 0.946217 0.228772
vn 0.000000 0.946217 0.323534
vn -0.199112 0.959535 -0.199113
vn -0.281588 0.959535 0.000001
vn 0.323533 0.946217 0.000000
vn 0.228772 0.946217 0.228772
vn -0.281588 0.959535 0.000001
vn -0.199112 0.959535 0.199113
vn 0.228773 0.946217 -0.228773
vn 0.323533 0.946217 0.000000
vn -0.199112 0.959535 0.199113
vn 0.000000 0.959536 0.281586
vn 0.000000 0.946216 -0.323535
vn 0.228773 0.946217 -0.228773
vn 0.000000 0.959536 0.281586
vn 0.199113 0.959536 0.199110
vn -0.228773 0.946216 -0.228774
vn 0.000000 0.946216 -0.323535
vn 0.199113 0.959536 0.199110
vn 0.281588 0.959535 0.000000
vn -0.323533 0.946217 -0.000000
vn -0.228773 0.946216 -0.228774
vn 0.281588 0.959535 0.000000
vn 0.199113 0.959536 -0.199112
vn -0.228773 0.946217 0.228774
vn -0.323533 0.946217 -0.000000
s off
g plate:polySurface1
f 42/49/153 50/50/154 49/51/155 41/52/156
f 43/53/157 51/54/158 50/50/159 42/49/160
f 44/61/161 52/62/162 51/54/163 43/53/164
f 45/60/165 53/68/166 52/62/167 44/61/168
f 46/59/169 54/67/170 53/68/171 45/60/172
f 47/66/173 55/65/174 54/67/175 46/59/176
f 48/58/177 56/57/178 55/65/179 47/66/180
f 41/52/181 49/51/182 56/57/183 48/58/184
f 49/51/185 50/50/186 58/55/187 57/56/188
f 50/50/189 51/54/190 59/63/191 58/55/192
f 51/54/193 52/62/194 60/69/195 59/63/196
f 52/62/197 53/68/198 61/72/199 60/69/200
f 53/68/201 54/67/202 62/71/203 61/72/204
f 54/67/205 55/65/206 63/70/207 62/71/208
f 55/65/209 56/57/210 64/64/211 63/70/212
f 56/57/213 49/51/214 57/56/215 64/64/216
f 73/89/217 74/90/218 66/75/219 65/76/220
f 74/90/221 75/91/222 67/78/223 66/75/224
f 75/91/225 76/92/226 68/84/227 67/78/228
f 76/92/229 77/93/230 69/80/231 68/84/232
f 77/93/233 78/94/234 70/79/235 69/80/236
f 78/94/237 79/95/238 71/85/239 70/79/240
f 79/95/241 80/96/242 72/82/243 71/85/244
f 80/96/245 73/89/246 65/76/247 72/82/248
f 41/52/249 48/58/250 47/66/251 46/59/252
f 69/80/253 66/75/254 67/78/255 68/84/256
f 43/53/257 42/49/258 45/60/259 44/61/260
f 42/49/261 41/52/262 46/59/263 45/60/264
f 72/82/265 65/76/266 70/79/267 71/85/268
f 70/79/269 65/76/270 66/75/271 69/80/272
f 57/73/273 58/74/274 74/90/275 73/89/276
f 58/74/277 59/77/278 75/91/279 74/90/280
f 59/77/281 60/83/282 76/92/283 75/91/284
f 60/83/285 61/86/286 77/93/287 76/92/288
f 61/86/289 62/87/290 78/94/291 77/93/292
f 62/87/293 63/88/294 79/95/295 78/94/296
f 63/88/297 64/81/298 80/96/299 79/95/300
f 64/81/301 57/73/302 73/89/303 80/96/304
