# This file uses centimeters as units for non-parametric coordinates.

mtllib tofu.mtl
g tofu:default1
v -1.002850 -0.000004 2.468227
v 1.002853 0.000000 2.468227
v -1.002853 4.936443 2.468227
v 1.002853 4.936455 2.468227
v -1.002853 4.936443 -2.468227
v 1.002853 4.936455 -2.468227
v -1.002850 -0.000004 -2.468227
v 1.002853 0.000000 -2.468227
vt 0.375000 0.000000
vt 0.625000 0.000000
vt 0.625000 0.250000
vt 0.375000 0.250000
vt 0.625000 0.500000
vt 0.375000 0.500000
vt 0.625000 0.750000
vt 0.375000 0.750000
vt 0.625000 1.000000
vt 0.375000 1.000000
vt 0.875000 0.000000
vt 0.875000 0.250000
vt 0.125000 0.000000
vt 0.125000 0.250000
vn -0.867055 -0.352290 0.352289
vn 0.867056 -0.352289 0.352288
vn 0.867055 0.352290 0.352288
vn -0.867056 0.352289 0.352289
vn 0.867055 0.352290 0.352288
vn 0.867055 0.352290 -0.352288
vn -0.867056 0.352288 -0.352289
vn -0.867056 0.352289 0.352289
vn 0.867055 0.352290 -0.352288
vn 0.867056 -0.352288 -0.352289
vn -0.867055 -0.352290 -0.352289
vn -0.867056 0.352288 -0.352289
vn 0.867056 -0.352288 -0.352289
vn 0.867056 -0.352289 0.352288
vn -0.867055 -0.352290 0.352289
vn -0.867055 -0.352290 -0.352289
vn 0.867056 -0.352288 -0.352289
vn 0.867055 0.352290 -0.352288
vn 0.867055 0.352290 0.352288
vn 0.867056 -0.352289 0.352288
vn -0.867056 0.352288 -0.352289
vn -0.867055 -0.352290 -0.352289
vn -0.867055 -0.352290 0.352289
vn -0.867056 0.352289 0.352289
s off
g tofu:polySurface290 tofu:polySurface304 tofu:polySurface1
usemtl tofu:initialShadingGroup
f 1/1/1 2/2/2 4/3/3 3/4/4
f 4/3/5 6/5/6 5/6/7 3/4/8
f 6/5/9 8/7/10 7/8/11 5/6/12
f 8/7/13 2/9/14 1/10/15 7/8/16
f 8/11/17 6/12/18 4/3/19 2/2/20
f 5/14/21 7/13/22 1/1/23 3/4/24
