# This file uses centimeters as units for non-parametric coordinates.

mtllib Fishheadcurry.mtl
g default
v -4.675225 6.495329 7.436121
v 2.188113 2.539075 4.491296
v 2.466458 0.751281 -0.020917
v -4.293510 9.081573 6.680201
v 3.770742 5.178721 2.714638
v 3.775522 3.640330 -1.402840
v -5.196352 9.655401 5.096133
v 0.746367 5.897964 -0.846585
v 2.539071 3.640331 -2.639290
v -6.780419 9.081573 4.193292
v -2.814856 5.178721 -3.870960
v 1.302621 3.640330 -3.875741
v -7.536340 6.495329 4.575008
v -4.591515 2.539075 -2.288331
v -0.079303 0.751282 -2.566675
v -7.230743 7.334981 7.130526
v -0.828901 1.245401 0.728683
v 1.530694 0.499664 -1.630913
v -0.361477 8.103814 6.128573
v -3.026723 8.823068 2.926504
v -6.228791 8.103814 0.261258
v -7.195475 4.760997 0.769649
v -4.601991 4.170505 4.501772
v -0.869868 4.760997 7.095257
v 0.228325 6.425976 7.970700
v -4.758975 8.262133 8.141862
v -8.242079 8.262133 4.658756
v -8.070917 6.425976 -0.328544
v -4.595669 3.500873 -4.399473
v 1.324387 1.155275 -4.764660
v 3.436714 0.825150 -3.536933
v 4.664443 1.155275 -1.424605
v 4.299254 3.500873 4.495450
v -7.926745 7.803611 6.049000
v -7.442004 7.677152 7.341786
v -6.974808 8.555656 6.874590
v -8.298802 8.673530 5.866457
v -6.149220 7.803611 7.826529
v -5.966674 8.673530 8.198584
v -5.807841 9.189508 7.434279
v -6.297608 9.634550 6.197390
v -7.534497 9.189508 5.707623
vt 0.883640 0.339188
vt 0.854431 0.377830
vt 0.829965 0.365765
vt 0.877000 0.314403
vt 0.850320 0.431920
vt 0.887529 0.477409
vt 0.877876 0.507092
vt 0.824866 0.444002
vt 0.887128 0.293098
vt 0.858286 0.255062
vt 0.909221 0.252811
vt 0.909275 0.287015
vt 0.852293 0.184375
vt 0.888433 0.146100
vt 0.909050 0.144737
vt 0.909112 0.184311
vt 0.960163 0.254908
vt 0.931441 0.293031
vt 0.929671 0.146038
vt 0.965932 0.184205
vt 0.941638 0.314304
vt 0.988840 0.365517
vt 0.964414 0.377658
vt 0.935078 0.339108
vt 0.994198 0.443737
vt 0.941397 0.506992
vt 0.931645 0.477340
vt 0.968703 0.431734
vt 0.909419 0.375537
vt 0.909339 0.326803
vt 0.909598 0.483860
vt 0.909533 0.444638
vt 0.909650 0.515187
vt 0.923828 0.322236
vt 0.909333 0.323114
vt 0.909318 0.314068
vt 0.926472 0.314489
vt 0.894835 0.322281
vt 0.892166 0.314542
vt 0.827711 0.260321
vt 0.895429 0.307128
vt 0.909298 0.300924
vt 0.923186 0.307086
vt 0.990754 0.260076
vt 0.995498 0.180678
vt 0.941679 0.116616
vt 0.908993 0.108868
vt 0.876332 0.116714
vt 0.822716 0.180938
vn -0.237954 -0.640438 0.730217
vn -0.100161 -0.738183 0.667124
vn 0.515160 0.223921 0.827327
vn 0.142746 0.301506 0.942718
vn 0.051397 -0.842032 0.536973
vn 0.167520 -0.936765 0.307259
vn 0.907505 -0.418492 -0.036060
vn 0.862465 -0.106560 0.494772
vn 0.297802 0.905828 0.301313
vn 0.508258 0.854853 0.104402
vn 0.284713 0.915356 -0.284713
vn 0.111036 0.987594 -0.111036
vn 0.710885 0.701442 -0.051197
vn 0.787280 0.540534 -0.296670
vn 0.533740 0.655930 -0.533740
vn 0.364227 0.857133 -0.364227
vn -0.104402 0.854854 -0.508258
vn -0.301313 0.905828 -0.297802
vn 0.296670 0.540534 -0.787280
vn 0.051197 0.701442 -0.710885
vn -0.942718 0.301505 -0.142746
vn -0.827327 0.223921 -0.515160
vn -0.667124 -0.738183 0.100161
vn -0.730217 -0.640438 0.237954
vn -0.494772 -0.106560 -0.862465
vn 0.036060 -0.418492 -0.907505
vn -0.307259 -0.936765 -0.167520
vn -0.536973 -0.842032 -0.051397
vn -0.384462 -0.839272 0.384462
vn -0.483431 -0.729786 0.483431
vn -0.079938 -0.993589 0.079938
vn -0.294177 -0.909351 0.294177
vn 0.614753 -0.494123 -0.614753
vn -0.903994 -0.300777 0.303854
vn -0.685529 -0.245154 0.685529
vn -0.603418 0.521318 0.603418
vn -0.900424 0.396799 0.178287
vn -0.303854 -0.300777 0.903994
vn -0.178286 0.396799 0.900425
vn -0.032966 0.893181 0.448488
vn -0.151206 0.976869 0.151205
vn -0.448488 0.893181 0.032965
s 1
g polySurface12 polySurface4
usemtl StingrayPBS1SG
f 1/1/1 24/2/2 25/3/3 26/4/4
f 2/5/5 3/6/6 32/7/7 33/8/8
f 4/9/9 19/10/10 20/11/11 7/12/12
f 5/13/13 6/14/14 9/15/15 8/16/16
f 7/12/12 20/11/11 21/17/17 10/18/18
f 8/16/16 9/15/15 12/19/19 11/20/20
f 27/21/21 28/22/22 22/23/23 13/24/24
f 29/25/25 30/26/26 15/27/27 14/28/28
f 13/24/24 22/23/23 23/29/29 16/30/30
f 14/28/28 15/27/27 18/31/31 17/32/32
f 16/30/30 23/29/29 24/2/2 1/1/1
f 17/32/32 18/31/31 3/6/6 2/5/5
f 18/31/31 15/27/27 30/26/26 31/33/33
f 3/6/6 18/31/31 31/33/33 32/7/7
f 34/34/34 35/35/35 36/36/36 37/37/37
f 35/35/35 38/38/38 39/39/39 36/36/36
f 19/10/10 5/13/13 8/16/16 20/11/11
f 21/17/17 20/11/11 8/16/16 11/20/20
f 22/23/23 28/22/22 29/25/25 14/28/28
f 23/29/29 22/23/23 14/28/28 17/32/32
f 24/2/2 23/29/29 17/32/32 2/5/5
f 33/8/8 25/3/3 24/2/2 2/5/5
f 26/4/4 25/40/3 19/10/10 4/9/9
f 36/36/36 39/39/39 40/41/40 41/42/41
f 37/37/37 36/36/36 41/42/41 42/43/42
f 10/18/18 21/17/17 28/44/22 27/21/21
f 29/45/25 28/44/22 21/17/17 11/20/20
f 11/20/20 12/19/19 30/46/26 29/45/25
f 31/47/33 30/46/26 12/19/19 9/15/15
f 32/48/7 31/47/33 9/15/15 6/14/14
f 33/49/8 32/48/7 6/14/14 5/13/13
f 19/10/10 25/40/3 33/49/8 5/13/13
f 13/24/24 16/30/30 35/35/35 34/34/34
f 27/21/21 13/24/24 34/34/34 37/37/37
f 16/30/30 1/1/1 38/38/38 35/35/35
f 1/1/1 26/4/4 39/39/39 38/38/38
f 26/4/4 4/9/9 40/41/40 39/39/39
f 4/9/9 7/12/12 41/42/41 40/41/40
f 7/12/12 10/18/18 42/43/42 41/42/41
f 10/18/18 27/21/21 37/37/37 42/43/42
g default
v -3.040476 8.268159 3.560520
v -3.481393 8.518707 4.425171
v -2.824894 8.358368 5.165510
v -1.978240 8.008724 4.758416
v -2.111476 7.952972 3.766477
v -2.765757 9.025941 3.481029
v -3.206673 9.276489 4.345680
v -2.550174 9.116149 5.086019
v -1.703519 8.766505 4.678924
v -1.836756 8.710753 3.686985
v -2.412576 8.979167 4.255727
vt 0.739585 0.602318
vt 0.768305 0.576797
vt 0.772151 0.591844
vt 0.755110 0.603127
vt 0.801254 0.596106
vt 0.788202 0.604567
vt 0.793140 0.633305
vt 0.780925 0.623562
vt 0.755326 0.637317
vt 0.760612 0.622672
vt 0.771439 0.609060
vn -0.414195 0.054854 -0.908534
vn -0.931284 0.348686 0.105492
vn -0.785896 0.614265 0.071037
vn -0.292815 0.334075 -0.895909
vn -0.161370 0.160646 0.973731
vn -0.051728 0.434955 0.898965
vn 0.831552 -0.249402 0.496307
vn 0.895094 0.043945 0.443707
vn 0.675297 -0.314785 -0.666997
vn 0.746094 -0.018402 -0.665586
vn 0.339180 0.935588 -0.098144
s 1
g polySurface4 polySurface11
usemtl StingrayPBS1SG
f 43/50/43 44/51/44 49/52/45 48/53/46
f 44/51/44 45/54/47 50/55/48 49/52/45
f 45/54/47 46/56/49 51/57/50 50/55/48
f 46/56/49 47/58/51 52/59/52 51/57/50
f 47/58/51 43/50/43 48/53/46 52/59/52
f 48/53/46 49/52/45 53/60/53
f 49/52/45 50/55/48 53/60/53
f 50/55/48 51/57/50 53/60/53
f 51/57/50 52/59/52 53/60/53
f 52/59/52 48/53/46 53/60/53
g default
v 4.863565 4.553019 2.044439
v 6.486646 4.553019 2.788825
v 6.841459 4.553019 1.038793
v 3.703937 4.553019 0.746450
v 5.089920 5.117622 0.041757
v 6.475902 4.553019 -0.662936
v 3.338383 4.553019 -0.955281
v 3.693192 4.553019 -2.705311
v 5.316270 4.553019 -1.960922
vt 0.941766 0.563520
vt 0.972360 0.587880
vt 0.905118 0.589226
vt 0.904411 0.553890
vt 0.942765 0.613445
vt 0.905826 0.624563
vt 0.837877 0.590573
vt 0.867471 0.565008
vt 0.868471 0.614933
vn -0.181823 0.951614 0.247731
vn 0.065239 0.989586 0.128311
vn 0.000000 1.000000 -0.000000
vn -0.246936 0.960864 0.125553
vn 0.307294 0.951614 -0.000956
vn 0.246936 0.960864 -0.125553
vn -0.065239 0.989586 -0.128311
vn -0.307295 0.951614 0.000956
vn 0.181824 0.951614 -0.247732
s 1
g polySurface4 polySurface10
usemtl StingrayPBS1SG
f 54/61/54 55/62/55 58/63/56 57/64/57
f 55/62/55 56/65/58 59/66/59 58/63/56
f 57/64/57 58/63/56 61/67/60 60/68/61
f 58/63/56 59/66/59 62/69/62 61/67/60
g default
v 0.584760 5.911927 -4.327206
v 0.035160 6.633939 -2.789304
v 1.765471 6.309055 -2.491014
v 1.718627 5.202725 -5.441158
v 2.676028 5.994766 -4.349200
v 3.373361 5.759289 -2.867785
v 3.326521 4.652960 -5.817925
v 5.056830 4.328075 -5.519638
v 4.507226 5.050086 -3.981740
vt 0.941766 0.563520
vt 0.972360 0.587880
vt 0.905118 0.589227
vt 0.904410 0.553890
vt 0.942765 0.613445
vt 0.905826 0.624563
vt 0.837877 0.590573
vt 0.867471 0.565008
vt 0.868471 0.614933
vn -0.039602 0.868601 -0.493927
vn 0.110634 0.954323 -0.277539
vn 0.230309 0.909948 -0.344895
vn 0.073886 0.824755 -0.560642
vn 0.252379 0.966808 -0.039852
vn 0.368705 0.923916 -0.102152
vn 0.345188 0.846620 -0.405068
vn 0.185952 0.765030 -0.616563
vn 0.477933 0.863237 -0.162487
s 1
g polySurface4 polySurface9
usemtl StingrayPBS1SG
f 63/70/63 64/71/64 67/72/65 66/73/66
f 64/71/64 65/74/67 68/75/68 67/72/65
f 66/73/66 67/72/65 70/76/69 69/77/70
f 67/72/65 68/75/68 71/78/71 70/76/69
g default
v 1.610825 6.767656 -5.026582
v 3.276966 6.148086 -4.857441
v 2.823829 5.651029 -6.511559
v 0.093038 7.065471 -5.824794
v 1.144705 6.770282 -7.067041
v 1.793030 5.500548 -7.905948
v -0.937758 6.914988 -7.219186
v -1.390898 6.417934 -8.873302
v 0.275241 5.798365 -8.704155
vt 0.941766 0.563520
vt 0.972360 0.587880
vt 0.905118 0.589227
vt 0.904410 0.553890
vt 0.942765 0.613445
vt 0.905826 0.624563
vt 0.837877 0.590573
vt 0.867471 0.565008
vt 0.868471 0.614933
vn 0.294754 0.953284 -0.066107
vn 0.462484 0.847746 -0.259682
vn 0.357189 0.863036 -0.357189
vn 0.191769 0.968669 -0.157814
vn 0.594721 0.677151 -0.433329
vn 0.494652 0.689851 -0.528606
vn 0.244455 0.860351 -0.447257
vn 0.085092 0.965404 -0.246483
vn 0.385059 0.689271 -0.613707
s 1
g polySurface4 polySurface8
usemtl StingrayPBS1SG
f 72/79/72 73/80/73 76/81/74 75/82/75
f 73/80/73 74/83/76 77/84/77 76/81/74
f 75/82/75 76/81/74 79/85/78 78/86/79
f 76/81/74 77/84/77 80/87/80 79/85/78
g default
v 1.476304 1.975255 -7.487984
v -2.864733 1.975255 -6.800432
v -5.972570 1.975255 -3.692592
v -6.660123 1.975255 0.648444
v -4.664767 1.975255 4.564549
v -0.748662 1.975255 6.559905
v 3.592375 1.975255 5.872351
v 6.700212 1.975255 2.764512
v 7.387765 1.975255 -1.576523
v 5.392409 1.975255 -5.492629
v 1.416104 4.252180 -7.158200
v -2.726967 4.252180 -6.502003
v -5.693077 4.252180 -3.535891
v -6.349274 4.252180 0.607179
v -4.444913 4.252180 4.344695
v -0.707397 4.252180 6.249055
v 3.435674 4.252180 5.592857
v 6.401784 4.252180 2.626747
v 7.057981 4.252180 -1.516322
v 5.153621 4.252180 -5.253839
v 8.693693 3.278020 -1.783362
v 7.878307 3.278020 3.364781
v 4.192644 3.278020 7.050446
v -0.955500 3.278020 7.865832
v -5.599708 3.278020 5.499490
v -7.966050 3.278020 0.855283
v -7.150665 3.278020 -4.292861
v -3.465002 3.278020 -7.978527
v 1.683143 3.278020 -8.793913
v 6.327351 3.278020 -6.427570
v 1.837409 4.252180 -1.937628
v -1.128701 4.252180 1.028483
vt 0.089404 0.031609
vt 0.150151 0.010083
vt 0.150583 0.023558
vt 0.097669 0.042262
vt 0.211926 0.028363
vt 0.204356 0.039520
vt 0.251164 0.079463
vt 0.238478 0.084032
vt 0.252902 0.143841
vt 0.239946 0.140126
vt 0.216460 0.196933
vt 0.208119 0.186340
vt 0.155757 0.218511
vt 0.155244 0.205036
vt 0.093967 0.200290
vt 0.101469 0.189087
vt 0.054671 0.149213
vt 0.067321 0.144553
vt 0.052927 0.084771
vt 0.065894 0.088483
vt 0.154950 0.185003
vt 0.173881 0.120522
vt 0.220677 0.134408
vt 0.196095 0.170387
vt 0.086372 0.137990
vt 0.113049 0.172651
vt 0.219698 0.090844
vt 0.193183 0.056151
vt 0.151324 0.043650
vt 0.110058 0.058153
vt 0.085121 0.094187
vt 0.131970 0.108086
vn 0.109794 -0.712325 -0.693209
vn -0.318633 -0.712325 -0.625353
vn -0.450828 0.106094 -0.886283
vn 0.155917 0.108741 -0.981766
vn -0.625354 -0.712324 -0.318633
vn -0.885978 0.102813 -0.452187
vn -0.693210 -0.712324 0.109794
vn -0.982788 0.100152 0.155234
vn -0.496283 -0.712324 0.496283
vn -0.703624 0.099133 0.703624
vn -0.109794 -0.712324 0.693210
vn -0.155234 0.100151 0.982788
vn 0.318634 -0.712324 0.625353
vn 0.452187 0.102813 0.885978
vn 0.625353 -0.712324 0.318633
vn 0.886283 0.106094 0.450828
vn 0.693210 -0.712324 -0.109794
vn 0.981766 0.108741 -0.155917
vn 0.496283 -0.712324 -0.496283
vn 0.702835 0.109751 -0.702835
vn 0.080572 0.984052 0.158587
vn 0.000000 1.000000 0.000000
vn -0.142505 0.979482 0.142505
vn -0.031655 0.979502 0.198934
vn 0.198173 0.979669 -0.031243
vn 0.158186 0.984095 0.080830
vn -0.198934 0.979502 0.031655
vn -0.158588 0.984052 -0.080572
vn -0.080830 0.984095 -0.158186
vn 0.031243 0.979669 -0.198173
vn 0.141792 0.979689 -0.141792
vn 0.000000 1.000000 0.000000
s 1
g polySurface4 polySurface7
usemtl StingrayPBS1SG
f 81/88/81 82/89/82 108/90/83 109/91/84
f 82/89/82 83/92/85 107/93/86 108/90/83
f 83/92/85 84/94/87 106/95/88 107/93/86
f 84/94/87 85/96/89 105/97/90 106/95/88
f 85/96/89 86/98/91 104/99/92 105/97/90
f 86/98/91 87/100/93 103/101/94 104/99/92
f 87/100/93 88/102/95 102/103/96 103/101/94
f 88/102/95 89/104/97 101/105/98 102/103/96
f 89/104/97 90/106/99 110/107/100 101/105/98
f 90/106/99 81/88/81 109/91/84 110/107/100
f 97/108/101 112/109/102 95/110/103 96/111/104
f 102/103/96 101/105/98 99/112/105 98/113/106
f 103/101/94 102/103/96 98/113/106 97/108/101
f 104/99/92 103/101/94 97/108/101 96/111/104
f 105/97/90 104/99/92 96/111/104 95/110/103
f 106/95/88 105/97/90 95/110/103 94/114/107
f 107/93/86 106/95/88 94/114/107 93/115/108
f 108/90/83 107/93/86 93/115/108 92/116/109
f 109/91/84 108/90/83 92/116/109 91/117/110
f 110/107/100 109/91/84 91/117/110 100/118/111
f 101/105/98 110/107/100 100/118/111 99/112/105
f 100/118/111 111/119/112 98/113/106 99/112/105
f 98/113/106 111/119/112 112/109/102 97/108/101
f 100/118/111 91/117/110 92/116/109 111/119/112
f 112/109/102 111/119/112 92/116/109 93/115/108
f 95/110/103 112/109/102 93/115/108 94/114/107
g default
v -2.537178 4.299479 -2.331884
v -0.775457 4.247734 -2.045237
v -0.893804 4.475287 -3.812358
v -3.997521 4.432126 -3.269601
v -2.841182 5.115321 -4.235231
v -1.694378 4.678516 -5.344445
v -4.798092 4.635355 -4.801691
v -4.916443 4.862907 -6.568810
v -3.154725 4.811162 -6.282159
vt 0.941766 0.563520
vt 0.972360 0.587880
vt 0.905118 0.589227
vt 0.904410 0.553890
vt 0.942765 0.613445
vt 0.905826 0.624563
vt 0.837877 0.590573
vt 0.867471 0.565008
vt 0.868471 0.614933
vn -0.102163 0.908302 0.405648
vn 0.105065 0.967151 0.231475
vn 0.008443 0.991847 0.127155
vn -0.197059 0.931081 0.307013
vn 0.304230 0.951778 0.039539
vn 0.213285 0.974979 -0.062656
vn -0.088354 0.995885 0.020186
vn -0.288161 0.935933 0.202467
vn 0.118233 0.979409 -0.163644
s 1
g polySurface4 polySurface6
usemtl StingrayPBS1SG
f 113/120/113 114/121/114 117/122/115 116/123/116
f 114/121/114 115/124/117 118/125/118 117/122/115
f 116/123/116 117/122/115 120/126/119 119/127/120
f 117/122/115 118/125/118 121/128/121 120/126/119
g bowl__1_:default1
v -0.320857 -0.958178 2.703028
v 1.894099 -0.958178 2.411427
v 3.254112 -0.958178 0.639019
v 2.962507 -0.958178 -1.575935
v 1.190104 -0.958178 -2.935946
v -1.024850 -0.958178 -2.644341
v -2.384865 -0.958178 -0.871937
v -2.093258 -0.958178 1.343012
v -1.623023 0.696795 7.562787
v 4.409695 0.696795 6.768566
v 8.113872 0.696795 1.941188
v 7.319642 0.696795 -4.091528
v 2.492274 0.696795 -7.795703
v -3.540446 0.696795 -7.001481
v -7.244619 0.696795 -2.174104
v -6.450400 0.696795 3.858609
v -2.596799 5.235730 11.196979
v 6.290890 5.235730 10.026892
v 11.748062 5.235730 2.914969
v 10.577978 5.235730 -5.972730
v 3.466051 5.235730 -11.429894
v -5.421640 5.235730 -10.259806
v -10.878810 5.235730 -3.147886
v -9.708729 5.235730 5.739806
v -1.704686 2.374394 7.867569
v 4.567458 2.374394 7.041820
v 8.418653 2.374394 2.022857
v 7.592904 2.374394 -4.249296
v 2.573940 2.374394 -8.100482
v -3.698213 2.374394 -7.274742
v -7.549398 2.374394 -2.255770
v -6.723665 2.374394 4.016378
v -2.252192 5.653140 9.910891
v 5.625159 5.653140 8.873813
v 10.461970 5.653140 2.570365
v 9.424897 5.653140 -5.306998
v 3.121443 5.653140 -10.143801
v -4.755910 5.653140 -9.106727
v -9.592719 5.653140 -2.803276
v -8.555652 5.653140 5.074077
vt 0.381945 0.170610
vt 0.320103 0.170610
vt 0.348020 0.103213
vt 0.391749 0.146943
vt 0.391749 0.194279
vt 0.348020 0.238008
vt 0.415418 0.204084
vt 0.415418 0.265925
vt 0.439088 0.194279
vt 0.482817 0.238008
vt 0.448892 0.170610
vt 0.510734 0.170610
vt 0.439088 0.146943
vt 0.482817 0.103213
vt 0.415418 0.137136
vt 0.415418 0.075296
vt 0.281103 0.170610
vt 0.320442 0.075636
vt 0.320442 0.265586
vt 0.415418 0.304926
vt 0.510395 0.265586
vt 0.549734 0.170610
vt 0.510395 0.075636
vt 0.415418 0.036296
vt 0.238492 0.450875
vt 0.149534 0.487722
vt 0.149534 0.456706
vt 0.216558 0.428943
vt 0.060578 0.450875
vt 0.082509 0.428943
vt 0.023731 0.361917
vt 0.054747 0.361917
vt 0.060578 0.272961
vt 0.082509 0.294892
vt 0.149534 0.236114
vt 0.149534 0.267130
vt 0.238492 0.272961
vt 0.216558 0.294892
vt 0.275339 0.361917
vt 0.244323 0.361917
vt 0.244510 0.456893
vt 0.149534 0.496232
vt 0.054560 0.456893
vt 0.015218 0.361917
vt 0.054560 0.266943
vt 0.149534 0.227601
vt 0.244510 0.266943
vt 0.283849 0.361917
vn 0.195424 -0.920455 0.338485
vn 0.359312 -0.695399 0.622347
vn -0.185994 -0.695399 0.694138
vn -0.101160 -0.920455 0.377531
vn 0.408492 -0.906176 0.109454
vn 0.694138 -0.695399 0.185994
vn 0.359312 -0.695399 0.622347
vn 0.195424 -0.920455 0.338485
vn 0.366244 -0.906176 -0.211451
vn 0.622347 -0.695399 -0.359312
vn 0.694138 -0.695399 0.185994
vn 0.408492 -0.906176 0.109454
vn 0.101158 -0.920455 -0.377531
vn 0.185994 -0.695399 -0.694138
vn 0.622347 -0.695399 -0.359312
vn 0.366244 -0.906176 -0.211451
vn -0.195424 -0.920455 -0.338485
vn -0.359312 -0.695399 -0.622347
vn 0.185994 -0.695399 -0.694138
vn 0.101158 -0.920455 -0.377531
vn -0.408491 -0.906176 -0.109455
vn -0.694138 -0.695399 -0.185994
vn -0.359312 -0.695399 -0.622347
vn -0.195424 -0.920455 -0.338485
vn -0.366244 -0.906176 0.211451
vn -0.622347 -0.695399 0.359312
vn -0.694138 -0.695399 -0.185994
vn -0.408491 -0.906176 -0.109455
vn -0.101160 -0.920455 0.377531
vn -0.185994 -0.695399 0.694138
vn -0.622347 -0.695399 0.359312
vn -0.366244 -0.906176 0.211451
vn -0.185994 -0.695399 0.694138
vn 0.359312 -0.695399 0.622347
vn 0.400140 -0.599627 0.693062
vn -0.207128 -0.599627 0.773011
vn 0.359312 -0.695399 0.622347
vn 0.694138 -0.695399 0.185994
vn 0.773010 -0.599628 0.207127
vn 0.400140 -0.599627 0.693062
vn 0.694138 -0.695399 0.185994
vn 0.622347 -0.695399 -0.359312
vn 0.693062 -0.599628 -0.400139
vn 0.773010 -0.599628 0.207127
vn 0.622347 -0.695399 -0.359312
vn 0.185994 -0.695399 -0.694138
vn 0.207127 -0.599628 -0.773010
vn 0.693062 -0.599628 -0.400139
vn 0.185994 -0.695399 -0.694138
vn -0.359312 -0.695399 -0.622347
vn -0.400140 -0.599627 -0.693062
vn 0.207127 -0.599628 -0.773010
vn -0.359312 -0.695399 -0.622347
vn -0.694138 -0.695399 -0.185994
vn -0.773011 -0.599627 -0.207128
vn -0.400140 -0.599627 -0.693062
vn -0.694138 -0.695399 -0.185994
vn -0.622347 -0.695399 0.359312
vn -0.693062 -0.599628 0.400139
vn -0.773011 -0.599627 -0.207128
vn -0.622347 -0.695399 0.359312
vn -0.185994 -0.695399 0.694138
vn -0.207128 -0.599627 0.773011
vn -0.693062 -0.599628 0.400139
vn 0.132818 0.858285 -0.495688
vn -0.256587 0.858285 -0.444421
vn -0.151638 0.952903 -0.262645
vn 0.078494 0.952903 -0.292942
vn -0.256587 0.858285 -0.444421
vn -0.495687 0.858285 -0.132819
vn -0.408408 0.906216 -0.109433
vn -0.151638 0.952903 -0.262645
vn -0.495687 0.858285 -0.132819
vn -0.444421 0.858285 0.256587
vn -0.366168 0.906216 0.211407
vn -0.408408 0.906216 -0.109433
vn -0.444421 0.858285 0.256587
vn -0.132819 0.858285 0.495687
vn -0.078493 0.952903 0.292943
vn -0.366168 0.906216 0.211407
vn -0.132819 0.858285 0.495687
vn 0.256587 0.858285 0.444421
vn 0.151638 0.952903 0.262645
vn -0.078493 0.952903 0.292943
vn 0.256587 0.858285 0.444421
vn 0.495688 0.858285 0.132818
vn 0.408408 0.906216 0.109432
vn 0.151638 0.952903 0.262645
vn 0.495688 0.858285 0.132818
vn 0.444421 0.858285 -0.256587
vn 0.366168 0.906216 -0.211407
vn 0.408408 0.906216 0.109432
vn 0.444421 0.858285 -0.256587
vn 0.132818 0.858285 -0.495688
vn 0.078494 0.952903 -0.292942
vn 0.366168 0.906216 -0.211407
vn -0.101160 -0.920455 0.377531
vn -0.366244 -0.906176 0.211451
vn -0.408491 -0.906176 -0.109455
vn -0.195424 -0.920455 -0.338485
vn -0.078493 0.952903 0.292943
vn -0.151638 0.952903 -0.262645
vn -0.408408 0.906216 -0.109433
vn -0.366168 0.906216 0.211407
vn 0.408492 -0.906176 0.109454
vn 0.195424 -0.920455 0.338485
vn 0.101158 -0.920455 -0.377531
vn 0.366244 -0.906176 -0.211451
vn 0.195424 -0.920455 0.338485
vn -0.101160 -0.920455 0.377531
vn -0.195424 -0.920455 -0.338485
vn 0.101158 -0.920455 -0.377531
vn 0.366168 0.906216 -0.211407
vn 0.078494 0.952903 -0.292942
vn 0.151638 0.952903 0.262645
vn 0.408408 0.906216 0.109432
vn 0.151638 0.952903 0.262645
vn 0.078494 0.952903 -0.292942
vn -0.151638 0.952903 -0.262645
vn -0.078493 0.952903 0.292943
vn -0.077425 0.954209 0.288948
vn 0.149571 0.954209 0.259064
vn -0.256587 0.858285 -0.444421
vn 0.132818 0.858285 -0.495688
vn 0.149571 0.954209 0.259064
vn 0.288950 0.954208 0.077424
vn -0.495687 0.858285 -0.132819
vn -0.256587 0.858285 -0.444421
vn 0.288950 0.954208 0.077424
vn 0.259065 0.954209 -0.149571
vn -0.444421 0.858285 0.256587
vn -0.495687 0.858285 -0.132819
vn 0.259065 0.954209 -0.149571
vn 0.077422 0.954208 -0.288951
vn -0.132819 0.858285 0.495687
vn -0.444421 0.858285 0.256587
vn 0.077422 0.954208 -0.288951
vn -0.149572 0.954208 -0.259066
vn 0.256587 0.858285 0.444421
vn -0.132819 0.858285 0.495687
vn -0.149572 0.954208 -0.259066
vn -0.288950 0.954208 -0.077424
vn 0.495688 0.858285 0.132818
vn 0.256587 0.858285 0.444421
vn -0.288950 0.954208 -0.077424
vn -0.259065 0.954208 0.149570
vn 0.444421 0.858285 -0.256587
vn 0.495688 0.858285 0.132818
vn -0.259065 0.954208 0.149570
vn -0.077425 0.954209 0.288948
vn 0.132818 0.858285 -0.495688
vn 0.444421 0.858285 -0.256587
s off
g bowl__1_:Bowl_01 bowl__1_:Bowls bowl__1_:Cookware bowl__1_:polySurface2 polySurface4 polySurface5
usemtl StingrayPBS1SG
f 123/129/122 131/130/123 130/131/124 122/132/125
f 124/133/126 132/134/127 131/130/128 123/129/129
f 125/135/130 133/136/131 132/134/132 124/133/133
f 126/137/134 134/138/135 133/136/136 125/135/137
f 127/139/138 135/140/139 134/138/140 126/137/141
f 128/141/142 136/142/143 135/140/144 127/139/145
f 129/143/146 137/144/147 136/142/148 128/141/149
f 122/132/150 130/131/151 137/144/152 129/143/153
f 130/131/154 131/130/155 139/145/156 138/146/157
f 131/130/158 132/134/159 140/147/160 139/145/161
f 132/134/162 133/136/163 141/148/164 140/147/165
f 133/136/166 134/138/167 142/149/168 141/148/169
f 134/138/170 135/140/171 143/150/172 142/149/173
f 135/140/174 136/142/175 144/151/176 143/150/177
f 136/142/178 137/144/179 145/152/180 144/151/181
f 137/144/182 130/131/183 138/146/184 145/152/185
f 154/153/186 155/154/187 147/155/188 146/156/189
f 155/154/190 156/157/191 148/158/192 147/155/193
f 156/157/194 157/159/195 149/160/196 148/158/197
f 157/159/198 158/161/199 150/162/200 149/160/201
f 158/161/202 159/163/203 151/164/204 150/162/205
f 159/163/206 160/165/207 152/166/208 151/164/209
f 160/165/210 161/167/211 153/168/212 152/166/213
f 161/167/214 154/153/215 146/156/216 153/168/217
f 122/132/218 129/143/219 128/141/220 127/139/221
f 150/162/222 147/155/223 148/158/224 149/160/225
f 124/133/226 123/129/227 126/137/228 125/135/229
f 123/129/230 122/132/231 127/139/232 126/137/233
f 153/168/234 146/156/235 151/164/236 152/166/237
f 151/164/238 146/156/239 147/155/240 150/162/241
f 138/169/242 139/170/243 155/154/244 154/153/245
f 139/170/246 140/171/247 156/157/248 155/154/249
f 140/171/250 141/172/251 157/159/252 156/157/253
f 141/172/254 142/173/255 158/161/256 157/159/257
f 142/173/258 143/174/259 159/163/260 158/161/261
f 143/174/262 144/175/263 160/165/264 159/163/265
f 144/175/266 145/176/267 161/167/268 160/165/269
f 145/176/270 138/169/271 154/153/272 161/167/273
