# This file uses centimeters as units for non-parametric coordinates.

mtllib Otah.mtl
g default
v 4.270177 1.272833 -5.522350
v 4.270177 2.489086 -6.347699
v 5.291342 2.480489 -5.509956
v -0.011389 2.480489 -5.509956
v 1.009777 2.489086 -6.347699
v 1.009777 1.272833 -5.522350
v 5.291342 2.480730 -5.509954
v 4.270177 2.489328 -6.347696
v 4.270177 3.688386 -5.497560
v 1.009777 3.688386 -5.497560
v 1.009777 2.489328 -6.347696
v -0.011389 2.480730 -5.509954
v 5.291342 2.372291 5.056171
v 4.270177 3.579947 5.068565
v 4.270177 2.363693 5.893914
v 1.009777 2.363693 5.893914
v 1.009777 3.579947 5.068565
v -0.011389 2.372291 5.056171
v 5.291342 2.372050 5.056169
v 4.270177 2.363452 5.893911
v 4.270177 1.164394 5.043775
v 1.009777 1.164394 5.043775
v 1.009777 2.363452 5.893911
v -0.011389 2.372050 5.056169
vt 0.168054 0.545079
vt 0.038568 0.545079
vt 0.040062 0.674345
vt 0.168054 0.674345
vt 0.056061 0.530818
vt 0.127065 0.545079
vt 0.097191 0.530765
vt 0.056061 0.530820
vt 0.038570 0.545079
vt 0.109531 0.545079
vt 0.127065 0.674345
vt 0.111068 0.674345
vt 0.109529 0.545079
vt 0.097191 0.530767
vt 0.056061 0.545079
vt 0.056061 0.674345
vt 0.040064 0.674345
vt 0.097191 0.545079
vt 0.111066 0.674345
vt 0.097191 0.674345
vt 0.056061 0.686290
vt 0.056061 0.686290
vt 0.097191 0.686290
vt 0.127065 0.686290
vt 0.168054 0.686290
vt 0.097191 0.686290
vt 0.182096 0.674345
vt 0.127065 0.530008
vt 0.180517 0.545079
vt 0.168054 0.529854
vn 0.261227 -0.960399 -0.096920
vn 0.763513 -0.645186 -0.027978
vn 0.763513 -0.645624 0.014731
vn 0.261227 -0.962186 0.077188
vn 0.066809 -0.560171 -0.825678
vn -0.261227 -0.960399 -0.096920
vn -0.066809 -0.560171 -0.825678
vn 0.066809 0.576999 -0.814008
vn 0.763513 0.645624 -0.014731
vn -0.763513 -0.645186 -0.027978
vn -0.261227 -0.962186 0.077188
vn -0.763513 -0.645624 0.014731
vn -0.763513 0.645624 -0.014731
vn -0.066809 0.576999 -0.814008
vn 0.261227 0.962186 -0.077188
vn 0.261227 0.960399 0.096920
vn 0.763513 0.645186 0.027978
vn -0.261227 0.962186 -0.077188
vn -0.763513 0.645186 0.027978
vn -0.261227 0.960399 0.096920
vn 0.066809 0.560171 0.825678
vn 0.066809 -0.576999 0.814008
vn -0.066809 0.560171 0.825678
vn -0.066809 -0.576999 0.814008
s 1
g polySurface1 pCube4
usemtl StingrayPBS1SG
f 1/1/1 3/29/2 19/27/3 21/4/4
f 2/30/5 1/1/1 6/6/6 5/28/7
f 3/2/2 2/5/5 8/8/8 7/9/9
f 4/10/10 6/6/6 22/11/11 24/12/12
f 5/7/7 4/10/10 12/13/13 11/14/14
f 7/9/9 9/15/15 14/16/16 13/17/17
f 9/15/15 8/8/8 11/14/14 10/18/18
f 10/18/18 12/13/13 18/19/19 17/20/20
f 13/17/17 15/21/21 20/22/22 19/3/3
f 15/21/21 14/16/16 17/20/20 16/23/23
f 16/23/23 18/19/19 24/12/12 23/26/24
f 21/4/4 20/25/22 23/24/24 22/11/11
f 2/5/5 5/7/7 11/14/14 8/8/8
f 9/15/15 10/18/18 17/20/20 14/16/16
f 15/21/21 16/23/23 23/26/24 20/22/22
f 21/4/4 22/11/11 6/6/6 1/1/1
f 4/10/10 24/12/12 18/19/19 12/13/13
f 19/3/3 3/2/2 7/9/9 13/17/17
f 1/1/1 2/30/5 3/29/2
f 4/10/10 5/28/7 6/6/6
f 7/9/9 8/8/8 9/15/15
f 10/18/18 11/14/14 12/13/13
f 13/17/17 14/16/16 15/21/21
f 16/23/23 17/20/20 18/19/19
f 19/27/3 20/25/22 21/4/4
f 22/11/11 23/24/24 24/12/12
g default
v -5.538085 2.009011 8.372083
v 0.000000 2.223071 10.631833
v 5.538085 2.009011 8.372083
v -5.538085 2.009011 -8.372083
v 0.000000 2.223071 -10.631833
v 5.538085 2.009011 -8.372083
v -7.207128 2.009011 -2.516680
v 0.000000 2.009011 -2.516680
v 7.207128 2.009011 -2.516680
v -7.207128 2.009011 2.516681
v 0.000000 2.009011 2.516681
v 7.207128 2.009011 2.516681
vt 0.552308 0.883385
vt 0.465247 0.883385
vt 0.489490 0.817093
vt 0.552308 0.797114
vt 0.552308 0.969656
vt 0.489490 0.949677
vt 0.606307 0.883385
vt 0.606307 0.797114
vt 0.606307 0.969656
vt 0.693368 0.883385
vt 0.669125 0.817093
vt 0.669125 0.949677
vn 0.000000 0.999973 0.007423
vn 0.000000 0.999908 0.013603
vn -0.014381 0.999804 0.013601
vn -0.007151 0.999952 0.006763
vn 0.007151 0.999952 0.006763
vn 0.014381 0.999804 0.013601
vn 0.000000 0.999972 -0.007423
vn -0.007151 0.999952 -0.006763
vn 0.007151 0.999952 -0.006763
vn 0.000000 0.999907 -0.013603
vn -0.014381 0.999804 -0.013601
vn 0.014381 0.999804 -0.013601
s 1
g pPlane1
usemtl StingrayPBS1SG
f 32/31/25 29/32/26 28/33/27 31/34/28
f 33/35/29 30/36/30 29/32/26 32/31/25
f 35/37/31 32/31/25 31/34/28 34/38/32
f 36/39/33 33/35/29 32/31/25 35/37/31
f 26/40/34 35/37/31 34/38/32 25/41/35
f 27/42/36 36/39/33 35/37/31 26/40/34
g default
v 2.884504 0.700322 -2.884503
v 0.000000 0.700322 -4.079307
v -2.884503 0.700322 -2.884503
v -4.079307 0.700322 0.000000
v -2.884503 0.700322 2.884504
v 0.000000 0.700322 4.079307
v 2.884505 0.700322 2.884504
v 4.079308 0.700322 0.000000
v 6.721563 1.970160 -6.721563
v 0.000000 1.970160 -9.505726
v -6.721563 1.970160 -6.721563
v -9.505726 1.970160 0.000000
v -6.721563 1.970160 6.721563
v 0.000000 1.970160 9.505726
v 6.721563 1.970160 6.721563
v 9.505726 1.970160 0.000000
v 0.000000 1.727717 0.000000
v 0.000000 1.458395 -9.529027
v 6.738038 1.458395 -6.738038
v 9.529027 1.458395 0.000000
v 6.738039 1.458395 6.738039
v 0.000000 1.458395 9.529027
v -6.738038 1.458395 6.738038
v -9.529027 1.458395 0.000000
v -6.738038 1.458395 -6.738038
v 2.450482 0.240692 -2.450481
v 0.000000 0.240692 -3.465506
v 0.000000 0.240692 0.000000
v -2.450481 0.240692 -2.450481
v -3.465506 0.240692 0.000000
v -2.450481 0.240692 2.450482
v 0.000000 0.240692 3.465507
v 2.450482 0.240692 2.450482
v 3.465507 0.240692 0.000000
vt 0.168571 0.886499
vt 0.172943 0.856192
vt 0.227535 0.838293
vt 0.219828 0.912465
vt 0.154599 0.831669
vt 0.180539 0.780406
vt 0.124288 0.827297
vt 0.106391 0.772701
vt 0.099766 0.845637
vt 0.048511 0.819673
vt 0.095393 0.875946
vt 0.040789 0.893814
vt 0.113734 0.900472
vt 0.087753 0.951711
vt 0.144047 0.904846
vt 0.161915 0.959446
vt 0.156897 0.861549
vt 0.153435 0.878946
vt 0.134167 0.866071
vt 0.147042 0.846802
vt 0.129646 0.843342
vt 0.114899 0.853196
vt 0.111438 0.870592
vt 0.121292 0.885340
vt 0.138689 0.888801
vt 0.242718 0.924053
vt 0.251907 0.830283
vt 0.368674 0.824518
vt 0.192111 0.757508
vt 0.098389 0.748324
vt 0.025620 0.808084
vt 0.016405 0.901797
vt 0.076151 0.974593
vt 0.169892 0.983830
vt 0.473196 0.818056
vt 0.447151 0.893857
vt 0.438013 0.746041
vt 0.362212 0.719996
vt 0.290196 0.755179
vt 0.264152 0.830980
vt 0.299335 0.902996
vt 0.375136 0.929040
vn 0.097423 -0.990463 -0.097423
vn 0.000000 -0.990463 -0.137777
vn 0.000000 -0.954020 -0.299744
vn 0.211951 -0.954020 -0.211951
vn -0.097423 -0.990463 -0.097423
vn -0.211951 -0.954020 -0.211951
vn -0.137777 -0.990463 -0.000000
vn -0.299744 -0.954020 -0.000000
vn -0.097423 -0.990463 0.097423
vn -0.211951 -0.954020 0.211951
vn -0.000000 -0.990463 0.137777
vn -0.000000 -0.954020 0.299744
vn 0.097423 -0.990463 0.097423
vn 0.211951 -0.954020 0.211951
vn 0.137777 -0.990463 -0.000000
vn 0.299744 -0.954020 -0.000000
vn 0.000000 -1.000000 -0.000000
vn 0.000000 -1.000000 0.000000
vn 0.000000 -1.000000 -0.000000
vn 0.000000 -1.000000 -0.000000
vn 0.000000 -1.000000 0.000000
vn 0.000000 -1.000000 0.000000
vn 0.000000 -1.000000 -0.000000
vn 0.000000 -1.000000 -0.000000
vn 0.000000 -1.000000 0.000000
vn 0.083574 0.992991 -0.083574
vn -0.000000 0.992991 -0.118192
vn 0.000000 1.000000 -0.000000
vn -0.083574 0.992991 -0.083574
vn -0.118192 0.992991 -0.000000
vn -0.083574 0.992991 0.083574
vn -0.000000 0.992991 0.118192
vn 0.083574 0.992991 0.083574
vn 0.118192 0.992991 -0.000000
vn 0.000000 -0.800451 -0.599398
vn 0.423839 -0.800451 -0.423839
vn 0.423839 -0.800451 -0.423839
vn 0.000000 -0.800451 -0.599398
vn -0.423839 -0.800451 -0.423839
vn -0.423839 -0.800451 -0.423839
vn -0.599398 -0.800451 -0.000000
vn -0.599398 -0.800451 0.000000
vn -0.423839 -0.800451 0.423839
vn -0.423839 -0.800451 0.423839
vn -0.000000 -0.800451 0.599398
vn -0.000000 -0.800451 0.599398
vn 0.423839 -0.800451 0.423839
vn 0.423839 -0.800451 0.423839
vn 0.599398 -0.800451 -0.000000
vn 0.599398 -0.800451 -0.000000
s 1
g pCylinder3
usemtl StingrayPBS1SG
f 37/43/37 38/44/38 54/45/39 55/46/40
f 38/44/38 39/47/41 61/48/42 54/45/39
f 39/47/41 40/49/43 60/50/44 61/48/42
f 40/49/43 41/51/45 59/52/46 60/50/44
f 41/51/45 42/53/47 58/54/48 59/52/46
f 42/53/47 43/55/49 57/56/50 58/54/48
f 43/55/49 44/57/51 56/58/52 57/56/50
f 44/57/51 37/43/37 55/46/40 56/58/52
s 2
f 63/59/53 62/60/54 64/61/55
f 65/62/56 63/59/53 64/61/55
f 66/63/57 65/62/56 64/61/55
f 67/64/58 66/63/57 64/61/55
f 68/65/59 67/64/58 64/61/55
f 69/66/60 68/65/59 64/61/55
f 70/67/61 69/66/60 64/61/55
f 62/60/54 70/67/61 64/61/55
s 1
f 45/78/62 46/84/63 53/70/64
f 46/84/63 47/83/65 53/70/64
f 47/83/65 48/82/66 53/70/64
f 48/82/66 49/81/67 53/70/64
f 49/81/67 50/80/68 53/70/64
f 50/80/68 51/79/69 53/70/64
f 51/79/69 52/77/70 53/70/64
f 52/77/70 45/78/62 53/70/64
f 55/46/40 54/45/39 46/69/63 45/68/62
f 56/58/52 55/46/40 45/68/62 52/76/70
f 57/56/50 56/58/52 52/76/70 51/75/69
f 58/54/48 57/56/50 51/75/69 50/74/68
f 59/52/46 58/54/48 50/74/68 49/73/67
f 60/50/44 59/52/46 49/73/67 48/72/66
f 61/48/42 60/50/44 48/72/66 47/71/65
f 54/45/39 61/48/42 47/71/65 46/69/63
s 3
f 38/44/71 37/43/72 62/60/73 63/59/74
f 39/47/75 38/44/71 63/59/74 65/62/76
f 40/49/77 39/47/75 65/62/76 66/63/78
f 41/51/79 40/49/77 66/63/78 67/64/80
f 42/53/81 41/51/79 67/64/80 68/65/82
f 43/55/83 42/53/81 68/65/82 69/66/84
f 44/57/85 43/55/83 69/66/84 70/67/86
f 37/43/72 44/57/85 70/67/86 62/60/73
g default
v -4.665523 1.164394 5.043775
v -4.665523 2.363452 5.893911
v -5.686688 2.372050 5.056169
v -0.383956 2.372050 5.056169
v -1.405122 2.363452 5.893911
v -1.405122 1.164394 5.043775
v -5.686688 2.372291 5.056171
v -4.665523 2.363693 5.893914
v -4.665523 3.579947 5.068565
v -1.405122 3.579947 5.068565
v -1.405122 2.363693 5.893914
v -0.383956 2.372291 5.056171
v -5.686688 2.480730 -5.509954
v -4.665523 3.688386 -5.497560
v -4.665523 2.489328 -6.347696
v -1.405122 2.489328 -6.347696
v -1.405122 3.688386 -5.497560
v -0.383956 2.480730 -5.509954
v -5.686688 2.480489 -5.509956
v -4.665523 2.489086 -6.347699
v -4.665523 1.272833 -5.522350
v -1.405122 1.272833 -5.522350
v -1.405122 2.489086 -6.347699
v -0.383956 2.480489 -5.509956
vt 0.168054 0.545079
vt 0.038568 0.545079
vt 0.040062 0.674345
vt 0.168054 0.674345
vt 0.056061 0.530819
vt 0.127065 0.545079
vt 0.097191 0.530765
vt 0.056061 0.530820
vt 0.038570 0.545079
vt 0.109531 0.545079
vt 0.127065 0.674345
vt 0.111068 0.674345
vt 0.109529 0.545079
vt 0.097191 0.530767
vt 0.056061 0.545079
vt 0.056061 0.674345
vt 0.040064 0.674345
vt 0.097191 0.545079
vt 0.111066 0.674345
vt 0.097191 0.674345
vt 0.056061 0.686290
vt 0.056061 0.686290
vt 0.097191 0.686290
vt 0.127065 0.686290
vt 0.168054 0.686290
vt 0.097191 0.686290
vt 0.182096 0.674345
vt 0.127065 0.530008
vt 0.180517 0.545079
vt 0.168054 0.529854
vn -0.261227 -0.962186 0.077188
vn -0.763513 -0.645624 0.014731
vn -0.763513 -0.645186 -0.027978
vn -0.261227 -0.960399 -0.096920
vn -0.066809 -0.576999 0.814008
vn 0.261227 -0.962186 0.077188
vn 0.066809 -0.576999 0.814008
vn -0.066809 0.560171 0.825678
vn -0.763513 0.645186 0.027978
vn 0.763513 -0.645624 0.014731
vn 0.261227 -0.960399 -0.096920
vn 0.763513 -0.645186 -0.027978
vn 0.763513 0.645186 0.027978
vn 0.066809 0.560171 0.825678
vn -0.261227 0.960399 0.096920
vn -0.261227 0.962186 -0.077188
vn -0.763513 0.645624 -0.014731
vn 0.261227 0.960399 0.096920
vn 0.763513 0.645624 -0.014731
vn 0.261227 0.962186 -0.077188
vn -0.066809 0.576999 -0.814008
vn -0.066809 -0.560171 -0.825678
vn 0.066809 0.576999 -0.814008
vn 0.066809 -0.560171 -0.825678
s 1
g pCube4 polySurface2
usemtl StingrayPBS1SG
f 71/85/87 73/113/88 89/111/89 91/88/90
f 72/114/91 71/85/87 76/90/92 75/112/93
f 73/86/88 72/89/91 78/92/94 77/93/95
f 74/94/96 76/90/92 92/95/97 94/96/98
f 75/91/93 74/94/96 82/97/99 81/98/100
f 77/93/95 79/99/101 84/100/102 83/101/103
f 79/99/101 78/92/94 81/98/100 80/102/104
f 80/102/104 82/97/99 88/103/105 87/104/106
f 83/101/103 85/105/107 90/106/108 89/87/89
f 85/105/107 84/100/102 87/104/106 86/107/109
f 86/107/109 88/103/105 94/96/98 93/110/110
f 91/88/90 90/109/108 93/108/110 92/95/97
f 72/89/91 75/91/93 81/98/100 78/92/94
f 79/99/101 80/102/104 87/104/106 84/100/102
f 85/105/107 86/107/109 93/110/110 90/106/108
f 91/88/90 92/95/97 76/90/92 71/85/87
f 74/94/96 94/96/98 88/103/105 82/97/99
f 89/87/89 73/86/88 77/93/95 83/101/103
f 71/85/87 72/114/91 73/113/88
f 74/94/96 75/112/93 76/90/92
f 77/93/95 78/92/94 79/99/101
f 80/102/104 81/98/100 82/97/99
f 83/101/103 84/100/102 85/105/107
f 86/107/109 87/104/106 88/103/105
f 89/111/89 90/109/108 91/88/90
f 92/95/97 93/108/110 94/96/98
